<?xml version="1.0" encoding="UTF-8" standalone="no"?>
<svg width="289px" height="87px" viewBox="0 0 289 87" version="1.1" xmlns="http://www.w3.org/2000/svg" xmlns:xlink="http://www.w3.org/1999/xlink" xmlns:sketch="http://www.bohemiancoding.com/sketch/ns">
    <!-- Generator: Sketch 3.3 (11970) - http://www.bohemiancoding.com/sketch -->
    <title>GBGSH_logo</title>
    <desc>Created with Sketch.</desc>
    <defs></defs>
    <g id="Welcome" stroke="none" stroke-width="1" fill="none" fill-rule="evenodd" sketch:type="MSPage">
        <g id="Home" sketch:type="MSArtboardGroup" transform="translate(-535.000000, -2395.000000)" fill="#1A1918">
            <g id="GBGSH_logo" sketch:type="MSLayerGroup" transform="translate(534.937500, 2394.371910)">
                <path d="M12.1034705,38.1214487 C12.1034705,39.1557855 12.4054505,40.0800564 13.0079993,40.8942615 C13.6119593,41.7084666 14.4120651,42.4648166 15.4069057,43.1604892 C16.4017463,43.8575729 17.5306434,44.5207902 18.7921859,45.1473189 C20.0537284,45.7738476 21.3477268,46.4187206 22.6713586,47.0847601 C23.9964016,47.7507996 25.2889888,48.4619944 26.5505314,49.2225776 C27.813485,49.9831609 28.940971,50.8411101 29.9372227,51.7950141 C30.9320633,52.7517404 31.730758,53.8326435 32.334718,55.0377234 C32.938678,56.2442145 33.2406579,57.6214487 33.2406579,59.1736595 C33.2406579,60.5819379 33.0134674,61.8787394 32.5576752,63.0626529 C32.1032941,64.2465663 31.4809895,65.307714 30.6893504,66.246096 C29.8977113,67.1873001 28.9607267,68.0170273 27.8798077,68.7380997 C26.7974776,69.4577611 25.6304802,70.0532455 24.3759933,70.5231421 C23.1229175,70.9930386 21.8063412,71.350047 20.4262645,71.5927563 C19.0475989,71.8354657 17.6604666,71.9568203 16.2648675,71.9568203 C14.306231,71.9568203 12.4012171,71.7183443 10.5512369,71.2399812 C8.7026679,70.7630292 7.05588923,70.0419567 5.61372316,69.0767639 C4.17296821,68.1129821 3.01584866,66.9064911 2.14659787,65.4572907 C1.27593597,64.0066792 0.841310579,62.3105362 0.841310579,60.3660395 C0.841310579,59.364158 1.00217842,58.4822201 1.3239141,57.7216369 C1.64423866,56.9610536 2.04499713,56.3260583 2.52195617,55.816651 C3.00032632,55.3072437 3.52244124,54.9234243 4.08547868,54.6651929 C4.64992724,54.4069614 5.1748644,54.2771402 5.66170128,54.2771402 C6.16264938,54.2771402 6.58175244,54.4140169 6.91901045,54.6891816 C7.25626847,54.9629351 7.42419191,55.3904986 7.42419191,55.970461 C7.42419191,56.237159 7.39596948,56.5193791 7.33529126,56.8171214 C7.27320192,57.1148636 7.20970146,57.4394167 7.14196763,57.7921919 C7.07564493,58.1449671 7.01073334,58.5330198 6.95005512,58.95635 C6.8893769,59.3796802 6.86115447,59.8411101 6.86115447,60.3434619 C6.86115447,61.4398871 7.11092296,62.3881468 7.61045994,63.1882408 C8.10999691,63.9869238 8.77463509,64.6459078 9.60296335,65.1623706 C10.4327027,65.6802446 11.3866208,66.064064 12.4633064,66.3152399 C13.5442254,66.5650047 14.6604225,66.6905927 15.8189531,66.6905927 C17.1820964,66.6905927 18.5452397,66.526905 19.9097941,66.1967074 C21.2729373,65.867921 22.4949685,65.3825024 23.5772986,64.7418627 C24.6582176,64.0984008 25.5359351,63.3110066 26.2104511,62.3810913 C26.883556,61.4483537 27.220814,60.3787394 27.220814,59.1736595 C27.220814,58.060301 26.9188341,57.0668862 26.3162852,56.1891816 C25.7123253,55.311477 24.9136306,54.5000941 23.9173788,53.7578551 C22.9225383,53.0142051 21.7894078,52.3128881 20.5208096,51.653904 C19.2508004,50.9977422 17.9582132,50.3317027 16.6416369,49.6571966 C15.3250606,48.9841016 14.0338846,48.2757291 12.7681087,47.532079 C11.4995105,46.7870179 10.3720245,45.9699906 9.37859505,45.0767639 C8.38657671,44.1835372 7.58929312,43.1844779 6.9881554,42.0809972 C6.38701768,40.9761054 6.0850377,39.7202258 6.0850377,38.3091251 C6.0850377,36.9911571 6.40254002,35.6915334 7.03472241,34.4130762 C7.66972704,33.1317968 8.6236451,31.984572 9.89929885,30.9728128 C11.1749526,29.9596425 12.7681087,29.139793 14.6759448,28.5118532 C16.5866032,27.8825024 18.8232306,27.569238 21.3900604,27.569238 C23.0199056,27.569238 24.6158839,27.8119473 26.1751731,28.2973659 C27.7344622,28.7841957 29.1258279,29.4728128 30.3478591,30.3674506 C31.5713013,31.2606773 32.5548529,32.3260583 33.2985139,33.5635936 C34.043586,34.80254 34.4161221,36.1741298 34.4161221,37.6783631 C34.4161221,38.5715898 34.2623098,39.4888053 33.9575076,40.4300094 C33.6512943,41.3698024 33.1616351,42.3491063 32.4871191,43.367921 C31.8295365,44.3556914 31.1126869,45.0880527 30.3365701,45.5664158 C29.5604533,46.0447789 28.859126,46.2832549 28.2325881,46.2832549 C27.7612735,46.2832549 27.3774485,46.1463782 27.0797019,45.8726246 C26.7819553,45.6002822 26.6337875,45.1882408 26.6337875,44.6421449 C26.6337875,44.2343368 26.7269216,43.7517404 26.9174229,43.1971778 C27.1079243,42.6412041 27.4324823,42.0047977 27.8910967,41.2837253 C28.3186665,40.5965193 28.6361688,39.9516463 28.8393703,39.3476952 C29.0468051,38.7465663 29.1484059,38.1863594 29.1484059,37.6713076 C29.1484059,36.8712135 28.9339154,36.1713076 28.5007012,35.5701787 C28.0674869,34.9676388 27.4719936,34.4638758 26.7099881,34.0560677 C25.9479825,33.6482596 25.0307536,33.344873 23.9625347,33.1416745 C22.8929047,32.9370649 21.7230851,32.8354657 20.4502536,32.8354657 C19.0391322,32.8354657 17.8128677,32.9963311 16.7700489,33.3180621 C15.7286414,33.6383819 14.8579795,34.0546566 14.1608855,34.5612418 C13.4637915,35.0706491 12.94591,35.6393227 12.6086519,36.2658514 C12.2713939,36.8923801 12.1034705,37.5104421 12.1034705,38.1214487" id="Fill-1" sketch:type="MSShapeGroup"></path>
                <path d="M50.4268466,33.909031 C50.4268466,33.7368768 50.4155576,33.5463782 50.3915685,33.3347131 C50.3675795,33.1258702 50.3167791,32.9254939 50.2391674,32.7392286 C50.1601446,32.5515522 50.0373771,32.39492 49.8722759,32.2707432 C49.7057635,32.1451552 49.4743396,32.0830668 49.176593,32.0830668 C48.7673678,32.0830668 48.3539092,32.4414864 47.9362173,33.1569144 C47.5199365,33.8723424 47.1177669,34.7867357 46.7311196,35.9000941 C46.3472946,37.0120414 45.9846364,38.2368768 45.6459673,39.5746002 C45.3087093,40.9137347 44.9982626,42.2119473 44.7160383,43.4734713 C44.9502844,43.49746 45.1873528,43.5172154 45.4230101,43.5341486 C45.6586674,43.5524929 45.9027914,43.5722484 46.153971,43.594826 C46.6252855,42.8060207 47.1177669,41.9494826 47.6285928,41.029445 C48.1408299,40.1079962 48.6008555,39.2006585 49.0100807,38.3116651 C49.4193059,37.4198495 49.7593862,36.5887112 50.024677,35.8140169 C50.2942012,35.0393227 50.4268466,34.4043274 50.4268466,33.909031 L50.4268466,33.909031 Z M57.9509459,63.6818438 C56.4438682,64.5595484 55.1018918,65.3271872 53.9236054,65.9861712 C52.7467302,66.6437441 51.6996781,67.1926623 50.7810381,67.6315146 C49.862398,68.0703669 49.048181,68.3991533 48.3327424,68.619285 C47.618715,68.8380056 46.9710103,68.9480715 46.3910394,68.9480715 C45.2056974,68.9480715 44.1614676,68.5882408 43.2583499,67.8671684 C42.3524099,67.146096 41.5960489,66.1075259 40.9892667,64.7514581 C40.3796622,63.3953904 39.9252811,61.7542803 39.62189,59.8253057 C39.3156767,57.8977422 39.1646867,55.7274694 39.1646867,53.3130762 C39.1646867,52.3732832 39.2041981,51.3699906 39.2803986,50.3046096 C39.3594214,49.2378175 39.4666667,48.179492 39.6077788,47.1296331 C39.133642,47.0590781 38.7667505,46.9941675 38.5071041,46.9334901 C38.2460467,46.8728128 37.9694669,46.8107244 37.6773647,46.750047 C37.3852626,46.6893697 37.0155488,46.6244591 36.5668122,46.553904 C36.1166645,46.4847601 35.4661375,46.3972719 34.6138202,46.2914393 C34.2356396,46.2406397 33.9435375,46.1404516 33.7375138,45.992286 C33.5343123,45.8427093 33.3833223,45.6677328 33.2887772,45.4687676 C33.1928209,45.2683913 33.1377872,45.0595484 33.1222648,44.8394167 C33.1067425,44.6221072 33.0996869,44.4344309 33.0996869,44.2777987 C33.0996869,44.0308561 33.2534991,43.8417686 33.5597125,43.7105362 C33.8673369,43.5821261 34.2610398,43.483349 34.7408211,43.4198495 C35.2234246,43.3549389 35.7497729,43.3168391 36.3240993,43.3097836 C36.8998368,43.301317 37.4529964,43.3055503 37.9793447,43.3210724 C38.5071041,43.3365945 38.9812409,43.3492944 39.3975217,43.35635 C39.8152137,43.3648166 40.1016713,43.3521167 40.2597169,43.3210724 C40.6830533,41.211477 41.2178683,39.1682032 41.8669842,37.1912512 C42.5175111,35.2142992 43.2442387,33.4546566 44.0514001,31.9165569 C44.8571504,30.3770461 45.736279,29.142333 46.6901971,28.2110066 C47.6441152,27.2810913 48.6460114,26.8168391 49.6944746,26.8168391 C50.3704017,26.8168391 50.9856507,27.0045155 51.5416325,27.3812794 C52.0976143,27.7566322 52.5717511,28.2561618 52.965454,28.8841016 C53.3577457,29.5106303 53.6597257,30.2415804 53.8713939,31.0797742 C54.0830621,31.917968 54.1888962,32.7900282 54.1888962,33.698777 C54.1888962,34.4494826 54.0788288,35.2439323 53.860105,36.0793039 C53.63997,36.9146754 53.3422234,37.7669802 52.965454,38.633396 C52.5900957,39.4984008 52.1470036,40.3761054 51.6361776,41.2665099 C51.1267628,42.1555033 50.5891255,43.0374412 50.024677,43.9109125 C50.1657891,43.8587018 50.4028575,43.8488241 50.7330599,43.8798683 C51.0618512,43.9123236 51.4414429,43.9349012 51.873246,43.94619 C52.303638,43.960301 52.7707192,43.9715898 53.2716673,43.9828786 C53.7726154,43.9969897 54.2594523,44.0111007 54.7293557,44.0266228 C55.1992592,44.0421449 55.6381179,44.057667 56.045932,44.0731891 C56.4537461,44.0887112 56.7910041,44.1042333 57.057706,44.1211665 C57.370975,44.1380997 57.5981655,44.3130762 57.7392777,44.6432738 C57.8803898,44.9748824 57.9509459,45.3939793 57.9509459,45.8991533 C57.9509459,46.4847601 57.7943114,46.9617121 57.4796313,47.3300094 C57.1663624,47.6983067 56.8206377,47.8817498 56.4438682,47.8817498 L47.4056357,47.8817498 C46.9498435,48.5096896 46.4884068,49.1249294 46.0241478,49.7274694 C45.5598889,50.3314205 45.130908,50.8761054 44.7372051,51.361524 C44.6751158,52.3337723 44.620082,53.2904986 44.5721039,54.2302916 C44.5565816,54.6380997 44.5410592,55.0571966 44.5255369,55.4875823 C44.5100146,55.9193791 44.4944922,56.3455315 44.4789699,56.7688617 C44.4634475,57.1921919 44.4507475,57.6 44.4436918,57.992286 C44.4352251,58.3831609 44.4309918,58.7444026 44.4309918,59.0731891 C44.4309918,59.9198495 44.5100146,60.6324553 44.666649,61.2124177 C44.8246946,61.7923801 45.0518852,62.2665099 45.352454,62.6348071 C45.6502006,63.0031044 46.0170922,63.2698024 46.4488954,63.4349012 C46.8821096,63.6 47.3661243,63.6818438 47.9009393,63.6818438 C48.2311417,63.6818438 48.641778,63.6028222 49.1370816,63.44619 C49.6309741,63.2895579 50.1728447,63.0736595 50.7598712,62.7999059 C51.34972,62.5261524 51.9692023,62.2001881 52.6197292,61.8248354 C53.2702562,61.4480715 53.9137276,61.0360301 54.5487322,60.5901223 C55.1837368,60.1428034 55.7933413,59.6729069 56.3733122,59.1790216 C56.9532831,58.6851364 57.4796313,58.1799624 57.9509459,57.6634995 L57.9509459,63.6818438 Z" id="Fill-3" sketch:type="MSShapeGroup"></path>
                <path d="M60.6542312,61.2795861 C60.6542312,61.684572 60.6810425,62.0768579 60.7360762,62.456444 C60.7911099,62.8374412 60.8898884,63.1761054 61.0310006,63.4738476 C61.1721127,63.7730009 61.361203,64.0171214 61.5968603,64.2033866 C61.8311064,64.3882408 62.1302641,64.4813735 62.4915112,64.4813735 C63.0714821,64.4813735 63.5964193,64.2287865 64.0691449,63.7222013 C64.5390484,63.2198495 64.9482736,62.6116651 65.2939983,61.9004704 C65.6383119,61.1920978 65.9163029,60.4569144 66.1307933,59.7005644 C66.3424615,58.9428034 66.4793403,58.3106303 66.5414296,57.8054563 L68.2954535,50.1629351 C67.6533933,50.1629351 67.0254443,50.3209784 66.4144287,50.6412982 C65.8034131,50.9587959 65.2276756,51.3905927 64.685805,51.9338664 C64.1453455,52.4785513 63.6486308,53.0994356 63.1928386,53.7993415 C62.7384575,54.4992474 62.2925431,55.3600188 61.8536843,56.385889 C61.4148256,57.4117592 61.1043789,58.3134525 60.9251665,59.0895579 C60.7445429,59.8670743 60.6542312,60.5952023 60.6542312,61.2795861 L60.6542312,61.2795861 Z M80.8248005,63.1210724 C80.4649645,63.6290687 79.982361,64.2245532 79.378401,64.9047037 C78.7758522,65.5862653 78.0971028,66.2367827 77.3449751,66.8534337 C76.5928474,67.4729069 75.7856859,67.9964252 74.9234908,68.4225776 C74.0612956,68.8515522 73.1991004,69.0660395 72.3369052,69.0660395 C71.2969088,69.0660395 70.427658,68.735842 69.7333863,68.0768579 C69.0377034,67.4178739 68.4365657,66.4597366 67.9313842,65.2024459 C67.5503814,65.6370649 67.0861225,66.0801505 66.5315518,66.5288805 C65.9798033,66.9790216 65.3758434,67.3868297 64.7196719,67.7508937 C64.0635005,68.1149577 63.3819288,68.4126999 62.6707236,68.6469426 C61.9595185,68.8797742 61.2483133,68.9954845 60.5371081,68.9954845 C59.7849804,68.9954845 59.0511972,68.8402634 58.3385809,68.5326435 C57.6245535,68.2250235 56.9937822,67.7819379 56.4462671,67.2047977 C55.8973409,66.6276576 55.4584822,65.9235183 55.1296909,65.0937912 C54.7994885,64.264064 54.6357984,63.3270931 54.6357984,62.2828786 C54.6357984,61.1116651 54.7994885,59.9079962 55.1325131,58.6761054 C55.4627155,57.4413923 55.9749526,56.10508 56.6692243,54.6685795 C57.3620849,53.2306679 58.107157,51.9903104 58.9044406,50.9432738 C59.7003131,49.8962371 60.5723861,48.9832549 61.5178375,48.2029163 C62.4646999,47.4225776 63.4623627,46.8002822 64.5094148,46.3402634 C65.557878,45.8802446 66.6260969,45.6488241 67.7154826,45.6488241 C68.0781408,45.6488241 68.3617762,45.7193791 68.5663889,45.8619003 C68.7710015,46.0058325 68.940336,46.1681091 69.0758037,46.3501411 C69.2084491,46.5321731 69.3382723,46.7099718 69.4652732,46.8849483 C69.590863,47.0571025 69.7489086,47.1855127 69.9365877,47.2645343 C70.1270891,47.343556 70.3190016,47.3943556 70.5165586,47.4183443 C70.7127045,47.4437441 70.9144949,47.4550329 71.1205186,47.4550329 C71.2926754,47.4550329 71.4718878,47.4507996 71.6511002,47.4437441 C71.8331349,47.4338664 72.0123473,47.4296331 72.1845041,47.4296331 C72.4215725,47.4296331 72.6417075,47.4550329 72.8463201,47.5015992 C73.0523438,47.5495767 73.2329673,47.652587 73.3896018,47.8092192 C73.5476474,47.9686736 73.6690038,48.1916275 73.7564934,48.4752587 C73.8425718,48.760301 73.8849054,49.1497648 73.8849054,49.6394167 C73.8849054,50.3901223 73.8072937,51.2212606 73.6506593,52.1342427 C73.4926137,53.0472248 73.3134012,53.9827846 73.1116109,54.9409219 C72.9098205,55.8990593 72.6783966,56.9912512 72.4201614,58.2189087 C72.1605151,59.4451552 72.032103,60.4780809 72.032103,61.3190969 C72.032103,62.0373471 72.0984257,62.5975541 72.2310711,63.0039511 C72.3651277,63.408937 72.6501742,63.6107244 73.0890329,63.6107244 C73.4192353,63.6107244 73.763549,63.5288805 74.124796,63.366604 C74.484632,63.2029163 74.8487013,62.9898401 75.217004,62.7259643 C75.5853067,62.4606773 75.9536094,62.1629351 76.3219121,61.8285042 C76.6902148,61.4926623 77.0401729,61.1483537 77.3689641,60.7913452 C78.1366142,59.9517404 78.912731,59.0048918 79.6959033,57.9465663 L80.8248005,63.1210724 Z" id="Fill-5" sketch:type="MSShapeGroup"></path>
                <path d="M78.9458923,64.0343368 C78.9458923,63.3443086 78.9854037,62.5413923 79.0630154,61.6241769 C79.1420382,60.7069614 79.2478723,59.7403575 79.3805177,58.7215428 C79.5145742,57.7027281 79.6712087,56.664158 79.8504211,55.6058325 C80.0310447,54.5475071 80.2624686,53.4186265 80.5446929,52.2206021 C80.8269171,51.0211665 81.06963,50.0221072 81.2728315,49.2220132 C81.4774441,48.4233302 81.6806456,47.7643462 81.8852582,47.2478833 C82.010848,46.9021637 82.1350267,46.6284102 82.2606165,46.4252117 C82.3862063,46.2206021 82.5315518,46.0597366 82.696653,45.9426152 C82.8603431,45.8254939 83.0649557,45.7464722 83.3076686,45.7069614 C83.5503814,45.6688617 83.8523614,45.6491063 84.2121974,45.6491063 C84.6200115,45.6491063 84.9375138,45.6688617 85.1647043,45.7069614 C85.3918949,45.7464722 85.5598183,45.841016 85.6698858,45.9891816 C85.7799533,46.1387582 85.846276,46.3546566 85.870265,46.6368768 C85.892843,46.9190969 85.9055431,47.3029163 85.9055431,47.7883349 C85.9055431,48.3682973 85.8660317,49.190969 85.7870089,50.25635 C85.7093972,51.3231421 85.6854081,52.2558796 85.7164528,53.0545626 L85.9760991,53.0545626 C86.2893681,52.4280339 86.6816598,51.6053622 87.1515633,50.5865475 C87.6214667,49.5677328 88.1153592,48.7210724 88.6318296,48.0465663 C89.1497112,47.3734713 89.7381488,46.8047977 90.3957314,46.3419567 C91.0547251,45.8805268 91.8139084,45.6491063 92.6761035,45.6491063 C92.9738502,45.6491063 93.2645412,45.6999059 93.5467654,45.8015052 C93.8289897,45.9031044 94.075936,46.0484478 94.2876042,46.2361242 C94.4978613,46.4252117 94.6671958,46.6552211 94.7927856,46.9303857 C94.9183754,47.2041392 94.9804648,47.5145814 94.9804648,47.8588899 C94.9804648,48.125588 94.9409534,48.4981185 94.8633417,48.9750706 C94.7843189,49.4534337 94.6587291,50.0771402 94.4865723,50.8447789 C94.3144155,51.6124177 94.1888257,52.2431797 94.111214,52.7370649 C94.0321912,53.2309501 93.9926798,53.6429915 93.9926798,53.971778 C93.9926798,54.5362183 94.0477135,55.0061148 94.157781,55.3828786 C94.2678485,55.7582314 94.4117829,56.060207 94.5924064,56.2873942 C94.7730299,56.5145814 94.9762314,56.6754468 95.203422,56.7699906 C95.4306125,56.8631232 95.6705032,56.9111007 95.9216828,56.9111007 C96.6258323,56.9111007 97.3553821,56.7544685 98.1075098,56.439793 C98.8596375,56.1265287 99.5496759,55.7737535 100.176214,55.3828786 C100.912819,54.9270931 101.633902,54.4106303 102.339463,53.8306679 L101.986683,59.3325494 C101.578868,59.5992474 101.117432,59.8969897 100.59955,60.2257761 C100.08308,60.5545626 99.5299202,60.8635936 98.9428937,61.1542803 C98.3544561,61.443556 97.7434405,61.6876764 97.1084359,61.8824083 C96.4734312,62.0785513 95.8271376,62.1773283 95.1681439,62.1773283 C93.9926798,62.1773283 93.0444062,61.9374412 92.3233232,61.4604892 C91.6022402,60.9821261 91.030736,60.3555974 90.6073996,59.579492 C90.1840631,58.8033866 89.8707942,57.9327375 89.6675927,56.9689558 C89.4629801,56.005174 89.29929,55.0301035 89.1737002,54.042333 L88.7969308,54.042333 L84.5889668,65.7742239 C84.3688319,66.3852305 84.161397,66.8904045 83.9652511,67.2911571 C83.7691053,67.6904986 83.5701371,68.0150517 83.3655245,68.2662277 C83.1623231,68.5174036 82.9421881,68.6937912 82.707942,68.7953904 C82.4722847,68.8969897 82.2140495,68.9477893 81.9318252,68.9477893 C81.289765,68.9477893 80.7718834,68.8109125 80.3795917,68.537159 C79.988711,68.2619944 79.686731,67.8936971 79.4750628,67.4322672 C79.2633946,66.9694262 79.1222825,66.4444967 79.0517264,65.8560677 C78.9811703,65.2690499 78.9458923,64.6608655 78.9458923,64.0343368" id="Fill-7" sketch:type="MSShapeGroup"></path>
                <path d="M111.226847,33.909031 C111.226847,33.7368768 111.215558,33.5463782 111.191569,33.3347131 C111.167579,33.1258702 111.116779,32.9254939 111.039167,32.7392286 C110.960145,32.5515522 110.837377,32.39492 110.672276,32.2707432 C110.505764,32.1451552 110.27434,32.0830668 109.976593,32.0830668 C109.567368,32.0830668 109.153909,32.4414864 108.736217,33.1569144 C108.319936,33.8723424 107.917767,34.7867357 107.53112,35.9000941 C107.147295,37.0120414 106.784636,38.2368768 106.445967,39.5746002 C106.108709,40.9137347 105.798263,42.2119473 105.516038,43.4734713 C105.750284,43.49746 105.987353,43.5172154 106.22301,43.5341486 C106.458667,43.5524929 106.702791,43.5722484 106.953971,43.594826 C107.425286,42.8060207 107.917767,41.9494826 108.428593,41.029445 C108.94083,40.1079962 109.400855,39.2006585 109.810081,38.3116651 C110.219306,37.4198495 110.559386,36.5887112 110.824677,35.8140169 C111.094201,35.0393227 111.226847,34.4043274 111.226847,33.909031 L111.226847,33.909031 Z M118.750946,63.6818438 C117.243868,64.5595484 115.901892,65.3271872 114.723605,65.9861712 C113.54673,66.6437441 112.499678,67.1926623 111.581038,67.6315146 C110.662398,68.0703669 109.848181,68.3991533 109.132742,68.619285 C108.418715,68.8380056 107.77101,68.9480715 107.191039,68.9480715 C106.005697,68.9480715 104.961468,68.5882408 104.05835,67.8671684 C103.15241,67.146096 102.396049,66.1075259 101.789267,64.7514581 C101.179662,63.3953904 100.725281,61.7542803 100.42189,59.8253057 C100.115677,57.8977422 99.9646867,55.7274694 99.9646867,53.3130762 C99.9646867,52.3732832 100.004198,51.3699906 100.080399,50.3046096 C100.159421,49.2378175 100.266667,48.179492 100.407779,47.1296331 C99.933642,47.0590781 99.5667505,46.9941675 99.3071041,46.9334901 C99.0460467,46.8728128 98.7694669,46.8107244 98.4773647,46.750047 C98.1852626,46.6893697 97.8155488,46.6244591 97.3668122,46.553904 C96.9166645,46.4847601 96.2661375,46.3972719 95.4138202,46.2914393 C95.0356396,46.2406397 94.7435375,46.1404516 94.5375138,45.992286 C94.3343123,45.8427093 94.1833223,45.6677328 94.0887772,45.4687676 C93.9928209,45.2683913 93.9377872,45.0595484 93.9222648,44.8394167 C93.9067425,44.6221072 93.8996869,44.4344309 93.8996869,44.2777987 C93.8996869,44.0308561 94.0534991,43.8417686 94.3597125,43.7105362 C94.6673369,43.5821261 95.0610398,43.483349 95.5408211,43.4198495 C96.0234246,43.3549389 96.5497729,43.3168391 97.1240993,43.3097836 C97.6998368,43.301317 98.2529964,43.3055503 98.7793447,43.3210724 C99.3071041,43.3365945 99.7812409,43.3492944 100.197522,43.35635 C100.615214,43.3648166 100.901671,43.3521167 101.059717,43.3210724 C101.483053,41.211477 102.017868,39.1682032 102.666984,37.1912512 C103.317511,35.2142992 104.044239,33.4546566 104.8514,31.9165569 C105.65715,30.3770461 106.536279,29.142333 107.490197,28.2110066 C108.444115,27.2810913 109.446011,26.8168391 110.494475,26.8168391 C111.170402,26.8168391 111.785651,27.0045155 112.341632,27.3812794 C112.897614,27.7566322 113.371751,28.2561618 113.765454,28.8841016 C114.157746,29.5106303 114.459726,30.2415804 114.671394,31.0797742 C114.883062,31.917968 114.988896,32.7900282 114.988896,33.698777 C114.988896,34.4494826 114.878829,35.2439323 114.660105,36.0793039 C114.43997,36.9146754 114.142223,37.7669802 113.765454,38.633396 C113.390096,39.4984008 112.947004,40.3761054 112.436178,41.2665099 C111.926763,42.1555033 111.389126,43.0374412 110.824677,43.9109125 C110.965789,43.8587018 111.202858,43.8488241 111.53306,43.8798683 C111.861851,43.9123236 112.241443,43.9349012 112.673246,43.94619 C113.103638,43.960301 113.570719,43.9715898 114.071667,43.9828786 C114.572615,43.9969897 115.059452,44.0111007 115.529356,44.0266228 C115.999259,44.0421449 116.438118,44.057667 116.845932,44.0731891 C117.253746,44.0887112 117.591004,44.1042333 117.857706,44.1211665 C118.170975,44.1380997 118.398166,44.3130762 118.539278,44.6432738 C118.68039,44.9748824 118.750946,45.3939793 118.750946,45.8991533 C118.750946,46.4847601 118.594311,46.9617121 118.279631,47.3300094 C117.966362,47.6983067 117.620638,47.8817498 117.243868,47.8817498 L108.205636,47.8817498 C107.749843,48.5096896 107.288407,49.1249294 106.824148,49.7274694 C106.359889,50.3314205 105.930908,50.8761054 105.537205,51.361524 C105.475116,52.3337723 105.420082,53.2904986 105.372104,54.2302916 C105.356582,54.6380997 105.341059,55.0571966 105.325537,55.4875823 C105.310015,55.9193791 105.294492,56.3455315 105.27897,56.7688617 C105.263448,57.1921919 105.250747,57.6 105.243692,57.992286 C105.235225,58.3831609 105.230992,58.7444026 105.230992,59.0731891 C105.230992,59.9198495 105.310015,60.6324553 105.466649,61.2124177 C105.624695,61.7923801 105.851885,62.2665099 106.152454,62.6348071 C106.450201,63.0031044 106.817092,63.2698024 107.248895,63.4349012 C107.68211,63.6 108.166124,63.6818438 108.700939,63.6818438 C109.031142,63.6818438 109.441778,63.6028222 109.937082,63.44619 C110.430974,63.2895579 110.972845,63.0736595 111.559871,62.7999059 C112.14972,62.5261524 112.769202,62.2001881 113.419729,61.8248354 C114.070256,61.4480715 114.713728,61.0360301 115.348732,60.5901223 C115.983737,60.1428034 116.593341,59.6729069 117.173312,59.1790216 C117.753283,58.6851364 118.279631,58.1799624 118.750946,57.6634995 L118.750946,63.6818438 Z" id="Fill-9" sketch:type="MSShapeGroup"></path>
                <path d="M134.596993,47.035936 C134.596993,47.4592662 134.582881,48.0378175 134.553248,48.7659454 C134.526436,49.4954845 134.431891,50.2899341 134.272435,51.1521167 C134.111567,52.0142992 133.916832,53.0585136 133.689641,54.2805268 C133.462451,55.5053622 133.274772,56.5185325 133.123782,57.3200376 C132.974203,58.1187206 132.845791,58.8214487 132.734312,59.4225776 C132.621423,60.0222954 132.564978,60.4583255 132.564978,60.7306679 C132.564978,61.1723424 132.573444,61.5773283 132.586145,61.9456256 C132.600256,62.3167451 132.639767,62.6398871 132.708912,62.9136406 C132.775235,63.1902164 132.881069,63.4018815 133.023592,63.5528692 C133.166115,63.7010348 133.372139,63.7758231 133.643074,63.7758231 C133.987388,63.7758231 134.406491,63.689746 134.900384,63.5175917 C135.394276,63.3426152 135.919213,63.1111947 136.476606,62.8190969 C137.032588,62.5298213 137.599859,62.1982126 138.17983,61.8285042 C138.759801,61.460207 139.31296,61.0693321 139.837897,60.6601129 C140.362835,60.2508937 140.841205,59.8459078 141.271597,59.4451552 C141.7034,59.0444026 142.051947,58.670461 142.318649,58.3233302 C142.318649,58.8426152 142.322882,59.3139229 142.329938,59.7400753 C142.338405,60.1648166 142.342638,60.5698024 142.342638,60.956444 C142.342638,61.3402634 142.34546,61.7381938 142.353927,62.147413 C142.360982,62.5566322 142.365216,63.0138288 142.365216,63.5175917 C142.020902,63.8562559 141.593332,64.2203198 141.083918,64.6069614 C140.574503,64.9950141 140.010054,65.3802446 139.391983,65.7668862 C138.772501,66.1535278 138.113507,66.5246472 137.416413,66.8816557 C136.719319,67.235842 136.017992,67.5491063 135.312431,67.8200376 C134.60687,68.0895579 133.919654,68.3068674 133.245138,68.470555 C132.573444,68.6328316 131.948318,68.7132643 131.373991,68.7132643 C130.788376,68.7132643 130.286017,68.5975541 129.871147,68.3661336 C129.456277,68.133302 129.097852,67.8101599 128.795872,67.3924741 C128.495304,66.9747883 128.241302,66.4752587 128.033867,65.8952963 C127.826432,65.3181562 127.645809,64.6732832 127.490585,63.9592662 C126.926137,64.6888053 126.329232,65.3562559 125.701283,65.9686736 C125.073334,66.5796802 124.434096,67.1088429 123.783569,67.5575729 C123.131631,68.0063029 122.472637,68.3562559 121.805177,68.6130762 C121.139128,68.8670743 120.490012,68.9954845 119.863474,68.9954845 C119.348415,68.9954845 118.8644,68.9094073 118.41143,68.735842 C117.95846,68.5636877 117.557702,68.274412 117.206332,67.866604 C116.853552,67.4587959 116.576972,66.9225776 116.373771,66.2579492 C116.17198,65.5919097 116.07038,64.7650047 116.07038,63.7772342 C116.085902,61.726905 116.242536,60.1507056 116.540283,59.0542803 C117.008775,57.4555033 117.447634,55.0707432 117.852626,51.9014111 C117.896371,51.6699906 117.955638,51.353904 118.029016,50.9531515 C118.102394,50.5509878 118.213873,50.1163688 118.362041,49.6450611 C118.51162,49.1751646 118.695065,48.6968015 118.9152,48.2113829 C119.133924,47.7259643 119.393571,47.2871119 119.691317,46.894826 C119.989064,46.50254 120.337611,46.1822201 120.736958,45.9310442 C121.136306,45.6798683 121.587864,45.5472248 122.088812,45.5317027 C122.919963,45.5698024 123.515456,45.7052681 123.875292,45.9352775 C124.236539,46.1638758 124.417163,46.4475071 124.417163,46.7875823 C124.276051,47.8444967 124.116594,48.8619003 123.940204,49.8355597 C123.766636,50.8120414 123.587423,51.7927563 123.411033,52.7819379 C123.233232,53.7739417 123.035675,54.8731891 122.818362,56.0853246 C122.60105,57.2960489 122.42607,58.2682973 122.293425,58.9992474 C122.162191,59.7301976 122.056357,60.3214487 121.975923,60.7715898 C121.895489,61.2231421 121.854566,61.4559737 121.854566,61.4714958 C121.854566,61.7635936 121.881378,62.0444026 121.936411,62.3096896 C121.991445,62.5763876 122.07329,62.8162747 122.184769,63.0251176 C122.294836,63.2353716 122.435948,63.4047037 122.608105,63.5345249 C122.783084,63.6643462 122.986286,63.7292568 123.221943,63.7292568 C123.567668,63.7292568 123.92327,63.6361242 124.283106,63.4540922 C124.645764,63.2706491 124.984434,63.0039511 125.297703,62.6511759 C125.629316,62.3336783 125.920007,61.9188147 126.172598,61.4065851 C126.422366,60.9126999 126.612868,60.3369708 126.738457,59.6822201 L129.330687,46.8708373 C129.406888,46.4954845 129.713101,46.1779868 130.249328,45.9197554 C130.785554,45.6601129 131.395158,45.5317027 132.07673,45.5317027 C132.850024,45.5317027 133.462451,45.6728128 133.915421,45.9550329 C134.369802,46.2372531 134.596993,46.5970837 134.596993,47.035936" id="Fill-11" sketch:type="MSShapeGroup"></path>
                <path d="M146.607188,62.135842 C147.546995,61.6786453 148.364034,61.1720602 149.054072,60.609031 C149.713066,60.0488241 150.293037,59.4491063 150.793985,58.8112888 C150.998598,58.7816557 151.484023,58.084572 152.254496,56.7186265 C152.770966,55.5502352 153.099757,54.6555974 153.24087,54.0318909 C153.319892,53.6988711 153.370693,53.3079962 153.394682,52.8606773 C153.41726,52.4119473 153.370693,51.9914393 153.25357,51.5977422 C153.137858,51.201223 152.933245,50.8639699 152.645376,50.584572 C152.356096,50.3037629 151.953927,50.1626529 151.438868,50.1626529 C150.858897,50.1626529 150.348071,50.319285 149.909212,50.6297272 C149.470353,50.9401693 149.08935,51.3620884 148.767615,51.8926623 C148.44729,52.4232361 148.180588,53.052587 147.96892,53.7821261 C147.755841,54.510254 147.504661,55.4091251 147.21397,56.4801505 C146.92469,57.5497648 146.749711,58.5347131 146.693266,59.4378175 C146.636821,60.3409219 146.607188,61.239793 146.607188,62.135842 L146.607188,62.135842 Z M138.194082,79.2595484 C138.194082,79.3851364 138.220893,79.5869238 138.275927,79.8663217 C138.330961,80.1485419 138.421273,80.4293509 138.546862,80.7087488 C138.672452,80.9895579 138.836142,81.2407338 139.040755,81.4580433 C139.243956,81.6753528 139.495136,81.7854186 139.792883,81.7854186 C140.059585,81.7854186 140.278308,81.6400753 140.451876,81.3522107 C140.624033,81.0643462 140.765145,80.6777046 140.873802,80.1936971 C140.983869,79.7125118 141.062892,79.1650047 141.109459,78.5582314 C141.156026,77.9514581 141.194126,77.3263405 141.219526,76.6871119 C141.246338,76.0478833 141.264682,75.425588 141.271738,74.8174036 C141.281616,74.2092192 141.301371,73.6645343 141.335238,73.1805268 C141.383216,72.3380997 141.421317,71.6240828 141.446717,71.0398871 C141.472117,70.4571025 141.491873,69.9688617 141.508806,69.5793979 C141.524329,69.1419567 141.539851,68.7623706 141.556784,68.4406397 C141.259038,68.9556914 140.968347,69.5554092 140.686123,70.2355597 C140.403898,70.9171214 140.137196,71.6240828 139.887428,72.3606773 C139.636248,73.0958608 139.409058,73.8310442 139.204445,74.5648166 C139.001244,75.3014111 138.824853,75.9857949 138.676686,76.6207902 C138.527107,77.2529633 138.409984,77.8004704 138.323905,78.2619003 C138.237827,78.7233302 138.194082,79.05635 138.194082,79.2595484 L138.194082,79.2595484 Z M149.587476,64.4345249 C151.16511,64.4345249 152.603043,64.2835372 153.904097,63.9801505 C155.200917,63.6753528 156.380615,63.2661336 157.437545,62.7496707 C158.495886,62.2332079 159.452626,61.6306679 160.306354,60.9406397 C161.160083,60.2492004 161.931966,59.5097836 162.622005,58.7209784 L162.88024,63.9321731 C162.379292,64.5855127 161.77251,65.2162747 161.058482,65.8272813 C160.345866,66.4368768 159.565516,66.9716839 158.718843,67.4317027 C157.873581,67.8917215 156.983164,68.2586077 156.050412,68.5351834 C155.117661,68.8103481 154.19761,68.9486359 153.288848,68.9486359 C153.17878,68.9486359 153.043313,68.9302916 152.878211,68.8978363 C152.714521,68.8639699 152.429475,68.8047037 152.024483,68.7214487 C151.616669,68.6339605 151.035287,68.5210724 150.278926,68.3785513 C149.521154,68.234619 148.495268,68.0610536 147.198448,67.8592662 L147.198448,68.2825964 C147.198448,71.1457197 146.951502,73.7477893 146.460431,76.0859831 C145.96795,78.4227658 145.310367,80.4180621 144.487684,82.0690499 C143.662178,83.7214487 142.718137,84.9956726 141.652741,85.8931326 C140.588755,86.7905927 139.481025,87.2393227 138.335194,87.2393227 C137.441954,87.2393227 136.696882,87.0177799 136.101389,86.5775165 C135.505896,86.1344309 135.031759,85.5389464 134.678979,84.791063 C134.326198,84.0403575 134.075019,83.164064 133.926851,82.1635936 C133.777272,81.160301 133.703894,80.1005644 133.703894,78.9787394 C133.703894,78.3296331 133.805495,77.5944497 134.008696,76.7774224 C134.213309,75.9575729 134.487066,75.1024459 134.83138,74.2049859 C135.177105,73.3075259 135.565163,72.3945437 135.995555,71.4660395 C136.427358,70.5375353 136.869039,69.635842 137.324831,68.7637817 C138.390228,66.7317968 139.605204,64.6363123 140.968347,62.4773283 C141.143326,61.2934149 141.321127,60.0784572 141.503162,58.8338664 C141.688019,57.5906867 141.918031,56.3700847 142.198845,55.1706491 C142.481069,53.9740357 142.915694,52.7181562 143.50131,51.4030103 C144.086925,50.0878645 144.714874,49.0323612 145.382335,48.2393227 C146.051206,47.444873 146.849901,46.8169332 147.781241,46.3484478 C148.713992,45.8813735 149.840067,45.6485419 151.156643,45.6485419 C152.113384,45.6485419 153.003801,45.7797742 153.834952,46.0394167 C154.66328,46.2990593 155.39283,46.7223895 156.017957,47.3065851 C156.644494,47.8907808 157.138387,48.6428975 157.496812,49.5657573 C157.856648,50.4886171 158.037271,51.6203198 158.037271,52.9622766 C158.037271,54.3888993 157.880637,55.5036689 157.567368,56.3094073 C157.098876,57.5074318 156.492093,58.5460019 155.749843,59.4265287 C155.006182,60.3084666 154.121409,61.1311383 153.096935,61.8973659 C152.07105,62.6621825 150.854663,63.3479774 149.447775,63.9561618 L149.587476,64.4345249 Z" id="Fill-13" sketch:type="MSShapeGroup"></path>
                <path d="M212.133033,51.4715898 C211.870565,52.2618062 211.423239,54.3601129 210.789646,57.7650988 C210.465088,59.4753528 210.302809,60.9598307 210.302809,62.2185325 C210.302809,63.3079022 210.525766,64.1616181 210.973092,64.778269 C211.420417,65.3963311 212.159845,65.7039511 213.195608,65.7039511 C213.586489,65.7039511 214.056392,65.5882408 214.605318,65.3554092 C215.154244,65.1239887 215.780782,64.7585136 216.486343,64.2618062 C217.191904,63.7665099 217.979309,63.123048 218.849971,62.3398871 C219.360797,61.8770461 220.52215,60.8652869 221.42809,59.6799624 C222.063095,58.8502352 222.682577,58.0035748 223.345804,56.1776105 C223.309115,56.2777987 223.702818,59.8662277 223.015602,60.3855127 C222.754544,60.5844779 222.722088,60.7382879 222.564043,61.580715 C222.442686,62.2269991 223.108736,63.0426152 223.51655,64.1164628 C222.341086,65.2721543 221.161388,66.2895579 219.977457,67.1672625 C218.794938,68.0421449 217.642051,68.7773283 216.521621,69.3714017 C215.401191,69.9626529 214.327327,70.4099718 213.301442,70.707714 C212.274146,71.0096896 211.330105,71.1578551 210.46791,71.1578551 C209.484359,71.1578551 208.568541,70.9857008 207.72469,70.6385701 C206.882251,70.2914393 206.15129,69.7862653 205.53463,69.123048 C204.916559,68.4598307 204.429722,67.6456256 204.071297,66.6790216 C203.711461,65.7138288 203.532249,64.6103481 203.532249,63.3714017 C203.532249,62.9057385 203.578816,62.3173095 203.673361,61.608937 C203.765084,60.9019755 203.901962,60.0962371 204.082586,59.1931326 C204.263209,58.2914393 204.487578,57.1851364 204.762746,55.8714017 C205.035093,54.5619003 205.328606,53.3074318 205.640464,52.1164628 C203.528015,52.3492944 201.504467,52.5651929 199.565586,52.7627469 C197.628117,52.960301 195.699114,53.1522107 193.777166,53.3328316 C193.32843,54.6832549 192.886749,56.0449671 192.452123,57.417968 C192.017498,58.790969 191.599806,60.0426152 191.200459,61.174318 C190.801111,62.3017874 190.432809,63.3361242 190.095551,64.273095 C189.758293,65.211477 189.471835,65.9720602 189.237589,66.5590781 C188.155259,68.6108184 187.387609,69.824365 186.933227,70.1940734 C186.196622,70.8206021 185.537628,71.1338664 184.957658,71.1338664 C184.582299,71.1338664 184.213997,71.0774224 183.852749,70.9645343 C183.492914,70.8488241 183.171178,70.6865475 182.888954,70.4720602 C182.606729,70.258984 182.383772,70.0021637 182.218671,69.7030103 C182.054981,69.4024459 181.971725,69.0694262 181.971725,68.6968956 C181.971725,68.4541863 182.002769,68.2157103 182.06627,67.9857008 C182.630718,65.4612418 183.374379,63.0412041 184.300075,60.7284102 C185.208837,58.3097836 185.99201,56.0096896 186.651003,53.8309501 C185.788808,53.8309501 184.961891,53.7603951 184.170252,53.6206961 C183.378613,53.4824083 182.646241,53.2382879 181.971725,52.8939793 C181.29862,52.5496707 180.698893,52.0727187 180.173956,51.4659454 C179.649019,50.8577611 179.212982,50.0844779 178.868669,49.1475071 C178.806579,48.8539981 178.754368,48.5915334 178.716268,48.3601129 C178.676756,48.1315146 178.657,47.9000941 178.657,47.6700847 C178.657,47.1691439 178.899713,46.917968 179.385139,46.917968 C179.684297,46.917968 180.013088,47.0548448 180.372924,47.3300094 C180.734171,47.6037629 181.195608,48.0468485 181.760056,48.6578551 C182.496662,48.6268109 183.233267,48.6028222 183.969873,48.5873001 C184.707889,48.571778 185.498117,48.5647225 186.34479,48.5647225 L188.602584,48.5647225 C189.167033,47.1070555 189.707492,45.7030103 190.223963,44.3554092 C190.867434,42.6 191.337337,41.267921 191.635084,40.3591722 C191.901786,39.5280339 192.113454,38.6968956 192.270089,37.8671684 C192.426723,37.0360301 192.505746,36.2444026 192.505746,35.492286 C192.505746,34.8812794 192.450712,34.3168391 192.342056,33.7989652 C192.233399,33.2825024 192.054187,32.84365 191.80583,32.4824083 C191.557472,32.1225776 191.237148,31.8403575 190.849089,31.6357479 C190.461031,31.4325494 189.979839,31.3309501 189.404101,31.3309501 C188.93702,31.3309501 188.39656,31.4085607 187.782723,31.5651929 C187.167474,31.721825 186.488724,31.9772342 185.742241,32.3300094 C184.997169,32.6827846 184.184363,33.1442145 183.306645,33.7171214 C182.426106,34.2886171 181.47501,34.9984008 180.449125,35.8450611 C180.0907,36.1428034 179.761909,36.3544685 179.458517,36.4800564 C179.155126,36.6042333 178.878547,36.6677328 178.630189,36.6677328 C178.50601,36.6677328 178.411465,36.460301 178.350787,36.0440263 C178.288698,35.6291627 178.257653,35.1155221 178.257653,34.5045155 C178.257653,33.6888993 178.449566,32.9142051 178.833391,32.1776105 C179.217216,31.441016 179.730864,30.7622766 180.372924,30.1428034 C181.016395,29.5247413 181.757234,28.960301 182.59544,28.4508937 C183.433646,27.9414864 184.295842,27.5096896 185.182026,27.1569144 C186.066799,26.8041392 186.94875,26.534619 187.826467,26.3469426 C188.704185,26.1578551 189.511346,26.0647225 190.247952,26.0647225 C191.345804,26.0647225 192.395678,26.2128881 193.398986,26.5106303 C194.402293,26.8083725 195.282833,27.2867357 196.043427,27.9457197 C196.804022,28.6032926 197.406571,29.4570085 197.853896,30.5082785 C198.301222,31.5581373 198.524179,32.8351834 198.524179,34.3394167 C198.524179,35.0449671 198.439511,35.9071496 198.271588,36.9259643 C198.105076,37.9447789 197.875063,39.0623706 197.590016,40.2759172 C197.300736,41.4908749 196.960656,42.7848542 196.568364,44.156444 C196.178895,45.5266228 195.75697,46.9264346 195.311055,48.3530574 C196.916911,48.2429915 198.72738,48.1329257 200.739639,48.0228598 C202.751898,47.9142051 204.772624,47.8041392 206.800406,47.6940734 C207.659779,45.1061148 208.557252,42.4066792 209.491414,39.5929445 C210.426988,36.7806209 211.458517,34.0289746 212.590237,31.3309501 C212.967006,30.4377234 213.460899,29.7237065 214.076148,29.1917215 C214.691397,28.6583255 215.416713,28.3916275 216.252097,28.3916275 C216.59641,28.3916275 216.928024,28.4381938 217.246937,28.5327375 C217.565851,28.6272813 217.848075,28.7712135 218.09361,28.9673565 C218.337734,29.1634995 218.528236,29.4146754 218.660881,29.7194732 C218.794938,30.025682 218.86126,30.3826905 218.86126,30.7904986 C218.86126,31.1644403 218.837271,31.5990593 218.790704,32.0943556 C218.744137,32.591063 218.618547,33.123048 218.413935,33.6917215 C218.054099,34.665381 217.667452,35.7011289 217.261049,36.8060207 C216.853235,37.9123236 216.441187,39.0482596 216.026317,40.2152399 C215.608625,41.3836312 215.193756,42.5788335 214.777475,43.8008467 C214.362605,45.0242709 213.967491,46.2378175 213.590722,47.4457197 C214.361194,47.3144873 215.117555,47.2199436 215.855572,47.1677328 C216.59641,47.1126999 217.152392,47.071778 217.524928,47.043556 C217.697085,47.029445 217.857953,47.0195673 218.00471,47.0082785 C218.151466,46.9969897 218.291167,46.9913452 218.422402,46.988523 C218.91065,46.988523 219.304352,47.0365005 219.606332,47.1324553 C219.906901,47.225588 220.142559,47.3610536 220.313304,47.5360301 C220.485461,47.7095955 220.602584,47.9156162 220.667496,48.1540922 C220.732407,48.3911571 220.764863,48.6606773 220.764863,48.9612418 C220.764863,49.2787394 220.691485,49.5440263 220.544728,49.7556914 C220.39656,49.9673565 220.211703,50.1366886 219.990157,50.2665099 C219.768611,50.3935089 219.535776,50.4866416 219.28883,50.5388523 C219.041884,50.5924741 218.811871,50.6249294 218.598792,50.6404516 C218.164166,50.6856068 217.852309,50.716651 217.66604,50.7364064 C217.479772,50.7547507 217.342894,50.7702728 217.256815,50.7773283 C217.172148,50.7857949 217.117114,50.7914393 217.094536,50.7942615 C217.070547,50.7956726 217.01128,50.801317 216.919557,50.8111947 C216.825012,50.8210724 216.662733,50.8394167 216.429898,50.8619944 C216.194241,50.8859831 215.838638,50.9226717 215.354624,50.9720602 C214.800053,51.0736595 214.25536,51.1639699 213.720545,51.2401693 C213.187141,51.3163688 212.657971,51.3925682 212.133033,51.4715898" id="Fill-15" sketch:type="MSShapeGroup"></path>
                <path d="M228.00702,61.2795861 C228.00702,61.684572 228.033832,62.0768579 228.088865,62.456444 C228.143899,62.8374412 228.242678,63.1761054 228.38379,63.4738476 C228.524902,63.7730009 228.713992,64.0171214 228.949649,64.2033866 C229.183896,64.3882408 229.483053,64.4813735 229.8443,64.4813735 C230.424271,64.4813735 230.949208,64.2287865 231.421934,63.7222013 C231.891838,63.2198495 232.301063,62.6116651 232.646787,61.9004704 C232.991101,61.1920978 233.269092,60.4569144 233.483582,59.7005644 C233.695251,58.9428034 233.832129,58.3106303 233.894219,57.8054563 L235.648243,50.1629351 C235.006182,50.1629351 234.378233,50.3209784 233.767218,50.6412982 C233.156202,50.9587959 232.580465,51.3905927 232.038594,51.9338664 C231.498135,52.4785513 231.00142,53.0994356 230.545628,53.7993415 C230.091247,54.4992474 229.645332,55.3600188 229.206474,56.385889 C228.767615,57.4117592 228.457168,58.3134525 228.277956,59.0895579 C228.097332,59.8670743 228.00702,60.5952023 228.00702,61.2795861 L228.00702,61.2795861 Z M248.17759,63.1210724 C247.817754,63.6290687 247.33515,64.2245532 246.73119,64.9047037 C246.128641,65.5862653 245.449892,66.2367827 244.697764,66.8534337 C243.945637,67.4729069 243.138475,67.9964252 242.27628,68.4225776 C241.414085,68.8515522 240.55189,69.0660395 239.689694,69.0660395 C238.649698,69.0660395 237.780447,68.735842 237.086175,68.0768579 C236.390493,67.4178739 235.789355,66.4597366 235.284173,65.2024459 C234.903171,65.6370649 234.438912,66.0801505 233.884341,66.5288805 C233.332592,66.9790216 232.728633,67.3868297 232.072461,67.7508937 C231.41629,68.1149577 230.734718,68.4126999 230.023513,68.6469426 C229.312308,68.8797742 228.601102,68.9954845 227.889897,68.9954845 C227.13777,68.9954845 226.403986,68.8402634 225.69137,68.5326435 C224.977343,68.2250235 224.346571,67.7819379 223.799056,67.2047977 C223.25013,66.6276576 222.811271,65.9235183 222.48248,65.0937912 C222.152278,64.264064 221.988588,63.3270931 221.988588,62.2828786 C221.988588,61.1116651 222.152278,59.9079962 222.485302,58.6761054 C222.815505,57.4413923 223.327742,56.10508 224.022013,54.6685795 C224.714874,53.2306679 225.459946,51.9903104 226.25723,50.9432738 C227.053102,49.8962371 227.925175,48.9832549 228.870627,48.2029163 C229.817489,47.4225776 230.815152,46.8002822 231.862204,46.3402634 C232.910667,45.8802446 233.978886,45.6488241 235.068272,45.6488241 C235.43093,45.6488241 235.714565,45.7193791 235.919178,45.8619003 C236.123791,46.0058325 236.293125,46.1681091 236.428593,46.3501411 C236.561238,46.5321731 236.691061,46.7099718 236.818062,46.8849483 C236.943652,47.0571025 237.101698,47.1855127 237.289377,47.2645343 C237.479878,47.343556 237.671791,47.3943556 237.869348,47.4183443 C238.065494,47.4437441 238.267284,47.4550329 238.473308,47.4550329 C238.645465,47.4550329 238.824677,47.4507996 239.003889,47.4437441 C239.185924,47.4338664 239.365136,47.4296331 239.537293,47.4296331 C239.774362,47.4296331 239.994497,47.4550329 240.199109,47.5015992 C240.405133,47.5495767 240.585756,47.652587 240.742391,47.8092192 C240.900437,47.9686736 241.021793,48.1916275 241.109283,48.4752587 C241.195361,48.760301 241.237695,49.1497648 241.237695,49.6394167 C241.237695,50.3901223 241.160083,51.2212606 241.003448,52.1342427 C240.845403,53.0472248 240.66619,53.9827846 240.4644,54.9409219 C240.26261,55.8990593 240.031186,56.9912512 239.772951,58.2189087 C239.513304,59.4451552 239.384892,60.4780809 239.384892,61.3190969 C239.384892,62.0373471 239.451215,62.5975541 239.58386,63.0039511 C239.717917,63.408937 240.002963,63.6107244 240.441822,63.6107244 C240.772025,63.6107244 241.116338,63.5288805 241.477585,63.366604 C241.837421,63.2029163 242.20149,62.9898401 242.569793,62.7259643 C242.938096,62.4606773 243.306399,62.1629351 243.674701,61.8285042 C244.043004,61.4926623 244.392962,61.1483537 244.721753,60.7913452 C245.489403,59.9517404 246.26552,59.0048918 247.048693,57.9465663 L248.17759,63.1210724 Z" id="Fill-17" sketch:type="MSShapeGroup"></path>
                <path d="M253.622402,68.9480715 C252.170358,68.9480715 250.894704,68.6813735 249.799674,68.1493885 C248.703232,67.6159925 247.783181,66.9019755 247.043754,66.0087488 C246.300093,65.1155221 245.739877,64.0811853 245.361697,62.9057385 C244.983516,61.7302916 244.794426,60.5082785 244.794426,59.2382879 C244.794426,58.329539 244.951061,57.2401693 245.265741,55.9701787 C245.581832,54.7001881 245.924734,53.591063 246.294448,52.6428034 C246.665573,51.6945437 247.121365,50.7900282 247.666058,49.9278457 C248.20934,49.0656632 248.840111,48.3093133 249.556961,47.6587959 C250.27381,47.0082785 251.073916,46.4918156 251.954456,46.1065851 C252.839229,45.7227658 253.807258,45.5308561 254.862777,45.5308561 C255.812462,45.5308561 256.693002,45.6677328 257.501574,45.9428975 C258.311558,46.216651 259.003007,46.5976482 259.578745,47.0830668 C260.153071,47.5684854 260.603219,48.1442145 260.929188,48.8116651 C261.253746,49.4777046 261.416025,50.1945437 261.416025,50.9621825 C261.416025,51.4955786 261.339824,52.020508 261.187423,52.5369708 C261.035022,53.0548448 260.738687,53.6616181 260.295595,54.3601129 C259.856736,55.0571966 259.427755,55.5313264 259.012885,55.7825024 C258.596604,56.0322672 258.126701,56.1578551 257.600353,56.1578551 C256.808714,56.1578551 256.295065,55.9617121 256.063642,55.5708373 C255.68405,54.9584196 255.564105,54.417968 255.705217,53.9480715 C255.751784,53.6968956 255.891485,53.1169332 256.125731,52.2081844 C256.158187,52.0825964 256.165242,51.8003763 256.14972,51.361524 C256.14972,50.9861712 256.110209,50.6729069 256.032597,50.421731 C255.953574,50.170555 255.782828,50.0449671 255.518949,50.0449671 C254.8783,50.0449671 254.332196,50.198777 253.879226,50.5035748 C253.426256,50.8097836 253.04102,51.2091251 252.720695,51.7030103 C252.40037,52.1968956 252.084279,52.8939793 251.772421,53.7956726 C251.459152,54.6959548 251.237606,55.4523048 251.104961,56.0647225 C250.973727,56.6757291 250.891882,57.2599247 250.859426,57.8158984 C250.828381,58.3718721 250.812859,58.8389464 250.812859,59.2142992 C250.812859,59.7787394 250.863659,60.3671684 250.96526,60.978175 C251.06545,61.5891816 251.268651,62.1493885 251.573453,62.6587959 C251.876844,63.1682032 252.271958,63.5915334 252.755973,63.9287865 C253.238577,64.2660395 253.863703,64.4339605 254.62712,64.4339605 C255.379248,64.4339605 256.210398,64.20254 257.11916,63.7411101 C258.029334,63.278269 258.942329,62.6940734 259.858147,61.988523 C260.775376,61.2829727 261.64886,60.5082785 262.480011,59.6616181 C263.311161,58.8149577 264.023777,58.0148636 264.619271,57.2627469 L266.24206,59.9904045 C265.066596,61.6682032 263.796587,63.1639699 262.433444,64.4805268 C261.853473,65.0449671 261.222701,65.5938852 260.54113,66.1272813 C259.858147,66.6592662 259.145531,67.133396 258.400459,67.5496707 C257.656798,67.9645343 256.880681,68.3017874 256.073519,68.5600188 C255.266358,68.8182502 254.449319,68.9480715 253.622402,68.9480715" id="Fill-19" sketch:type="MSShapeGroup"></path>
                <path d="M276.173674,29.4028222 C275.66567,29.4028222 275.226811,29.5594544 274.862742,29.8713076 C274.49585,30.184572 274.151537,30.6290687 273.824157,31.2076199 C273.496776,31.7847601 273.172219,32.4903104 272.84625,33.3172154 C272.52028,34.1455315 272.151978,35.0683913 271.738519,36.0843838 C271.514151,36.9973659 271.282727,37.937159 271.048481,38.9037629 C270.812824,39.8703669 270.623733,40.8270931 270.478388,41.7739417 C270.334453,42.7193791 270.193341,43.6521167 270.055051,44.567921 C269.91535,45.4837253 269.786938,46.3430856 269.665582,47.1417686 C269.429925,49.1187206 269.242245,51.0603951 269.101133,52.9710254 C269.445447,51.9225776 269.823627,50.7795861 270.237086,49.5476952 C270.649133,48.3158043 271.055536,47.0980245 271.459117,45.8971778 C271.862698,44.6991533 272.243701,43.5674506 272.599303,42.5105362 C272.956317,41.4522107 273.252652,40.5547507 273.491132,39.8181562 C273.601199,39.4738476 273.759245,39.0420508 273.965269,38.525588 C274.171292,38.007714 274.39425,37.4517404 274.631318,36.8562559 C274.868386,36.2607714 275.108277,35.6412982 275.345346,34.9978363 C275.582414,34.3557855 275.799727,33.7363123 275.997284,33.1408278 C276.194841,32.5453434 276.358531,31.9893697 276.485532,31.4714958 C276.612533,30.9550329 276.674622,30.5161806 276.674622,30.1549389 C276.674622,29.6539981 276.50811,29.4028222 276.173674,29.4028222 L276.173674,29.4028222 Z M271.573418,55.9851364 C272.137867,55.2527752 272.757349,54.4484478 273.430454,53.5693321 C274.10497,52.6916275 274.766786,51.8562559 275.417313,51.0561618 C276.06784,50.2588899 276.7226,49.4305738 277.380183,48.5683913 C278.039176,47.7062088 278.524602,47.1629351 278.837871,46.9399812 C279.324708,46.5886171 279.920201,46.2908749 280.625762,46.0425212 C281.329911,45.7955786 282.114495,45.6728128 282.97669,45.6728128 C283.415549,45.6728128 283.834652,45.7758231 284.233999,45.9832549 C284.633347,46.1920978 284.981894,46.4870179 285.281051,46.8694262 C285.578798,47.2518344 285.813044,47.7132643 285.985201,48.2565381 C286.158769,48.7998119 286.244847,49.405174 286.244847,50.0754468 C286.244847,50.7287865 286.028946,51.5063029 285.597142,52.4079962 C285.16675,53.3096896 284.716603,54.0956726 284.245288,54.7645343 C283.775385,55.4348071 283.26597,56.10508 282.717044,56.7753528 C282.169529,57.4456256 281.660114,58.1187206 281.188799,58.7988711 C280.718896,59.4776105 280.328015,60.1507056 280.013335,60.8209784 C279.700066,61.4912512 279.543432,62.161524 279.543432,62.8317968 C279.543432,63.4047037 279.68031,63.8167451 279.955479,64.0636877 C280.229237,64.3106303 280.656806,64.433396 281.236777,64.433396 C281.550046,64.433396 281.890127,64.3261524 282.25984,64.110254 C282.628143,63.8957667 283.007735,63.6135466 283.400026,63.2621825 C283.790907,62.9094073 284.187432,62.5199436 284.58678,62.0881468 C284.986127,61.6577611 285.369952,61.2189087 285.738255,60.7715898 C286.106557,60.325682 286.456515,59.9009407 286.785307,59.4931326 C287.114098,59.0853246 287.411845,58.7381938 287.678547,58.4503293 L289.089668,64.3148636 C288.602831,64.9724365 287.987582,65.5834431 287.243921,66.1478833 C286.498849,66.7109125 285.691688,67.2019755 284.822437,67.6196613 C283.951775,68.0373471 283.050068,68.3619003 282.118728,68.5975541 C281.185977,68.8303857 280.288504,68.9475071 279.426309,68.9475071 C278.297411,68.9475071 277.37736,68.820508 276.663333,68.5636877 C275.950717,68.3096896 275.390501,67.9682032 274.982687,67.544873 C274.574873,67.1215428 274.296882,66.6445908 274.147303,66.1111947 C273.999136,65.5777987 273.924346,65.0260583 273.924346,64.4559737 C273.924346,64.0890875 273.968091,63.6389464 274.054169,63.1041392 C274.140248,62.5707432 274.303938,61.9667921 274.548062,61.2979304 C274.790775,60.6290687 275.130855,59.891063 275.569714,59.0853246 C276.008573,58.2795861 276.581488,57.4145814 277.287049,56.4888993 C277.569273,56.2010348 277.827508,55.9428034 278.061754,55.7113829 C278.297411,55.4799624 278.500613,55.2725306 278.674181,55.0890875 C278.846338,54.9056444 278.978983,54.7334901 279.073528,54.5754468 C279.168073,54.4145814 279.21464,54.2480715 279.21464,54.0716839 C279.21464,53.7372531 279.155373,53.4663217 279.03825,53.2588899 C278.921127,53.0514581 278.751793,52.9470367 278.533069,52.9470367 C278.266367,52.9470367 277.920642,53.1234243 277.498717,53.4733772 C277.059858,53.8402634 276.59701,54.4555033 276.111584,55.3162747 L269.198501,67.3924741 C268.823142,67.9625588 268.446373,68.3647225 268.069604,68.5975541 C267.694245,68.8303857 267.255387,68.9475071 266.753027,68.9475071 C266.079922,68.9475071 265.546518,68.8106303 265.154227,68.5382879 C264.763346,68.2659454 264.4656,67.8976482 264.260987,67.433396 C264.057785,66.9691439 263.927962,66.4301035 263.872929,65.8176858 C263.817895,65.2052681 263.791083,64.5533396 263.791083,63.8604892 C263.791083,62.9503293 263.822128,61.7494826 263.885629,60.2508937 C263.947718,58.7537159 264.042263,57.1097836 264.167853,55.3176858 C264.292032,53.525588 264.461366,51.6502352 264.673034,49.6902164 C264.884703,47.7316087 265.138704,45.8266228 265.436451,43.979492 C265.552163,43.3444967 265.696097,42.5669802 265.864021,41.6455315 C266.034767,40.7254939 266.263368,39.7433678 266.554059,38.7033866 C266.841928,37.6634055 267.14673,36.5698024 267.467055,35.4239887 C267.784557,34.2767639 268.175438,33.1690499 268.638285,32.0966134 C269.101133,31.0269991 269.623248,30.0067733 270.203219,29.035936 C270.78319,28.067921 271.433717,27.2198495 272.157622,26.4931326 C272.878705,25.7664158 273.670344,25.1920978 274.533951,24.7687676 C275.396146,24.3482596 276.338775,24.1365945 277.357605,24.1365945 C278.156299,24.1365945 278.815293,24.2650047 279.331763,24.521825 C279.849645,24.7814675 280.260281,25.1398871 280.566495,25.5999059 C280.871297,26.0599247 281.087198,26.6088429 281.212788,27.2494826 C281.338378,27.8901223 281.400467,28.5843838 281.400467,29.3322672 C281.400467,30.6742239 281.232544,32.1177799 280.895286,33.6643462 C280.558028,35.2095014 280.131869,36.760301 279.613988,38.315334 C279.097517,39.8689558 278.533069,41.3802446 277.920642,42.8477893 C277.309626,44.3139229 276.7226,45.6389464 276.158151,46.8228598 C275.593703,48.0053622 275.095577,49.0044214 274.665185,49.8158043 C274.233382,50.6285983 273.948335,51.1619944 273.807223,51.4145814 L271.008969,55.6267168 L271.573418,55.9851364 Z" id="Fill-21" sketch:type="MSShapeGroup"></path>
                <path d="M66.4880893,4.87281279 L69.4584998,4.87281279 L69.4584998,8.54873001 C68.6795608,8.88033866 67.8032544,9.04543744 66.8295806,9.04543744 C65.5581603,9.04543744 64.5830754,8.68701787 63.9057371,7.96735654 C63.2269877,7.2491063 62.8883186,6.23170273 62.8883186,4.91655691 C62.8883186,4.09811853 63.056242,3.37140169 63.3935,2.7364064 C63.7293469,2.1028222 64.2105393,1.61317027 64.8370772,1.26745061 C65.4636151,0.923142051 66.183287,0.74957667 66.9946818,0.74957667 C67.8738105,0.74957667 68.6626273,0.911853246 69.3597213,1.2349953 L69.1339419,1.74158043 C68.4354368,1.41843838 67.7115315,1.25616181 66.962226,1.25616181 C65.8996516,1.25616181 65.0572122,1.58494826 64.4349076,2.24111007 C63.8126031,2.89727187 63.5007452,3.78203198 63.5007452,4.8953904 C63.5007452,6.10752587 63.7956696,7.0190969 64.3883406,7.63151458 C64.9796005,8.24393227 65.8488513,8.54873001 66.9946818,8.54873001 C67.7369317,8.54873001 68.367703,8.44430856 68.8855845,8.23546566 L68.8855845,5.40197554 L66.4880893,5.40197554 L66.4880893,4.87281279 Z" id="Fill-23" sketch:type="MSShapeGroup"></path>
                <path d="M80.6951184,4.89482596 C80.6951184,6.0491063 80.9519425,6.94092192 81.4670018,7.57027281 C81.9820611,8.20103481 82.7200776,8.51571025 83.6824624,8.51571025 C84.6533139,8.51571025 85.3941527,8.20385701 85.9063897,7.57873942 C86.4200379,6.95362183 86.6754509,6.06039511 86.6754509,4.89482596 C86.6754509,3.73349012 86.4200379,2.84308561 85.9063897,2.22361242 C85.3941527,1.60413923 84.6561362,1.29510818 83.6937514,1.29510818 C82.7341888,1.29510818 81.9947612,1.60696143 81.4754685,2.23207902 C80.9547647,2.85719661 80.6951184,3.74477893 80.6951184,4.89482596 M87.2878776,4.89482596 C87.2878776,6.17328316 86.967553,7.18504233 86.328315,7.92869238 C85.689077,8.67375353 84.8071262,9.044873 83.6824624,9.044873 C82.562032,9.044873 81.6814923,8.67375353 81.0422543,7.92869238 C80.4030163,7.18504233 80.0826917,6.17046096 80.0826917,4.88353716 C80.0826917,3.60084666 80.4058385,2.59190969 81.050721,1.85531515 C81.6956035,1.1187206 82.5761432,0.74901223 83.6937514,0.74901223 C84.8184151,0.74901223 85.6975438,1.1201317 86.3339595,1.86095955 C86.9703753,2.60037629 87.2878776,3.61213547 87.2878776,4.89482596" id="Fill-25" sketch:type="MSShapeGroup"></path>
                <path d="M100.2709,8.93523048 L99.7036292,8.93523048 L99.7036292,1.40559737 L97.0845879,1.40559737 L97.0845879,0.876434619 L102.88853,0.876434619 L102.88853,1.40559737 L100.2709,1.40559737 L100.2709,8.93523048 Z" id="Fill-27" sketch:type="MSShapeGroup"></path>
                <path d="M118.954571,8.93523048 L118.3873,8.93523048 L118.3873,4.97144873 L113.679799,4.97144873 L113.679799,8.93523048 L113.116761,8.93523048 L113.116761,0.876434619 L113.679799,0.876434619 L113.679799,4.45357479 L118.3873,4.45357479 L118.3873,0.876434619 L118.954571,0.876434619 L118.954571,8.93523048 Z" id="Fill-29" sketch:type="MSShapeGroup"></path>
                <path d="M134.671782,8.93523048 L130.267672,8.93523048 L130.267672,0.876434619 L134.671782,0.876434619 L134.671782,1.39430856 L130.829298,1.39430856 L130.829298,4.44228598 L134.457292,4.44228598 L134.457292,4.96157103 L130.829298,4.96157103 L130.829298,8.41735654 L134.671782,8.41735654 L134.671782,8.93523048 Z" id="Fill-31" sketch:type="MSShapeGroup"></path>
                <path d="M151.386938,8.93523048 L150.819668,8.93523048 L146.045844,1.78095014 L146.002099,1.78095014 C146.045844,2.63325494 146.067011,3.27671684 146.067011,3.70992474 L146.067011,8.93523048 L145.527962,8.93523048 L145.527962,0.876434619 L146.089589,0.876434619 L150.857768,8.02083725 L150.890224,8.02083725 C150.857768,7.35903104 150.840834,6.73109125 150.840834,6.13560677 L150.840834,0.876434619 L151.386938,0.876434619 L151.386938,8.93523048 Z" id="Fill-33" sketch:type="MSShapeGroup"></path>
                <path d="M163.261525,4.96100659 L163.261525,8.43936971 L165.158072,8.43936971 C166.649627,8.43936971 167.396111,7.83259643 167.396111,6.62046096 C167.396111,5.51415804 166.610116,4.96100659 165.036716,4.96100659 L163.261525,4.96100659 Z M163.261525,4.46429915 L165.036716,4.46429915 C165.794488,4.46429915 166.344825,4.33871119 166.687728,4.08753528 C167.032041,3.83635936 167.202787,3.44125118 167.202787,2.90503293 C167.202787,2.36881468 167.009463,1.97935089 166.621405,1.73664158 C166.233347,1.49393227 165.656198,1.37257761 164.887137,1.37257761 L163.261525,1.37257761 L163.261525,4.46429915 Z M162.699899,0.875870179 L164.909715,0.875870179 C165.905966,0.875870179 166.638338,1.04520226 167.104008,1.38386642 C167.57109,1.72253057 167.803925,2.23193791 167.803925,2.91632173 C167.803925,3.38198495 167.661401,3.77144873 167.376355,4.08189087 C167.092719,4.39233302 166.676439,4.59129821 166.127512,4.68019755 L166.127512,4.71265287 C166.770984,4.80860771 167.243709,5.01180621 167.547101,5.32224835 C167.850492,5.6326905 168.001482,6.0658984 168.001482,6.62046096 C168.001482,7.36269991 167.757358,7.93419567 167.263465,8.33494826 C166.770984,8.73428975 166.072479,8.93466604 165.169361,8.93466604 L162.699899,8.93466604 L162.699899,0.875870179 Z" id="Fill-35" sketch:type="MSShapeGroup"></path>
                <path d="M184.734277,0.876434619 L184.734277,6.09045155 C184.734277,7.01754468 184.466164,7.74143932 183.929938,8.26213547 C183.392301,8.78424271 182.645817,9.04529633 181.686255,9.04529633 C180.752092,9.04529633 180.023954,8.78424271 179.500428,8.25931326 C178.976902,7.73579492 178.714433,7.00625588 178.714433,6.06928504 L178.714433,0.876434619 L179.283115,0.876434619 L179.283115,6.09045155 C179.283115,6.86655691 179.497606,7.4690969 179.927998,7.9023048 C180.356978,8.3341016 180.965172,8.55 181.752578,8.55 C182.520228,8.55 183.115721,8.3369238 183.537646,7.9121825 C183.959571,7.4888523 184.172651,6.89901223 184.172651,6.14548448 L184.172651,0.876434619 L184.734277,0.876434619 Z" id="Fill-37" sketch:type="MSShapeGroup"></path>
                <path d="M196.52208,4.9388523 L198.060202,4.9388523 C198.738951,4.9388523 199.2653,4.78786453 199.640658,4.48447789 C200.016016,4.18109125 200.202284,3.73377234 200.202284,3.14252117 C200.202284,2.52728128 200.02025,2.08137347 199.651947,1.80197554 C199.285055,1.52398871 198.685329,1.38287865 197.855589,1.38287865 L196.52208,1.38287865 L196.52208,4.9388523 Z M196.52208,5.42427093 L196.52208,8.93508937 L195.960453,8.93508937 L195.960453,0.876293509 L197.878167,0.876293509 C198.877241,0.876293509 199.615258,1.0611477 200.092217,1.43085607 C200.571998,1.79915334 200.809066,2.355127 200.809066,3.09736595 C200.809066,3.6378175 200.667954,4.09360301 200.381497,4.46472248 C200.097861,4.83584196 199.666058,5.10253998 199.083265,5.26340546 L201.271914,8.93508937 L200.60022,8.93508937 L198.52305,5.42427093 L196.52208,5.42427093 Z" id="Fill-39" sketch:type="MSShapeGroup"></path>
                <path d="M214.868069,4.87281279 L217.83848,4.87281279 L217.83848,8.54873001 C217.060952,8.88033866 216.184645,9.04543744 215.20956,9.04543744 C213.93814,9.04543744 212.963055,8.68701787 212.285717,7.96735654 C211.606967,7.2491063 211.268298,6.23170273 211.268298,4.91655691 C211.268298,4.09811853 211.436222,3.37140169 211.77348,2.7364064 C212.109327,2.1028222 212.590519,1.61317027 213.217057,1.26745061 C213.843595,0.923142051 214.563267,0.74957667 215.374662,0.74957667 C216.252379,0.74957667 217.041196,0.911853246 217.739701,1.2349953 L217.513922,1.74158043 C216.815417,1.41843838 216.091511,1.25616181 215.342206,1.25616181 C214.279631,1.25616181 213.437192,1.58494826 212.814887,2.24111007 C212.192583,2.89727187 211.880725,3.78203198 211.880725,4.8953904 C211.880725,6.10752587 212.17706,7.0190969 212.76832,7.63151458 C213.35958,8.24393227 214.228831,8.54873001 215.374662,8.54873001 C216.118323,8.54873001 216.747683,8.44430856 217.265564,8.23546566 L217.265564,5.40197554 L214.868069,5.40197554 L214.868069,4.87281279 Z" id="Fill-41" sketch:type="MSShapeGroup"></path>
            </g>
        </g>
    </g>
</svg>