<?xml version="1.0" encoding="UTF-8" standalone="no"?>
<svg width="361px" height="165px" viewBox="0 0 361 165" version="1.1" xmlns="http://www.w3.org/2000/svg" xmlns:xlink="http://www.w3.org/1999/xlink" xmlns:sketch="http://www.bohemiancoding.com/sketch/ns">
    <!-- Generator: Sketch 3.3 (11970) - http://www.bohemiancoding.com/sketch -->
    <title>symbols</title>
    <desc>Created with Sketch.</desc>
    <defs></defs>
    <g id="Page-1" stroke="none" stroke-width="1" fill="none" fill-rule="evenodd" sketch:type="MSPage">
        <g id="symbols" sketch:type="MSArtboardGroup" fill="#000000">
            <g id="Zoso" sketch:type="MSLayerGroup" transform="translate(4.000000, 5.000000)">
                <path d="M140.068528,95.921309 C140.068528,124.285256 116.720693,147.332668 87.92553,147.332668 C59.1303671,147.332668 35.7825318,124.285256 35.7825318,95.921309 C35.7825318,67.5573637 59.1303648,44.5099588 87.92553,44.5099588 C116.720695,44.5099588 140.068528,67.5573637 140.068528,95.921309 L140.068528,95.921309 Z M149.503092,95.921309 C149.503092,62.3192514 121.904106,35.0753952 87.92553,35.0753952 C53.9469541,35.0753952 26.3479682,62.3192514 26.3479682,95.921309 C26.3479682,129.523367 53.9469559,156.767232 87.92553,156.767232 C121.904104,156.767232 149.503092,129.523367 149.503092,95.921309 L149.503092,95.921309 Z M11.9444891,141.665329 C26.4790123,111.453298 55.5400573,92.1869728 87.62704,92.1869728 C120.19144,92.1869728 149.443571,112.824472 161.153507,142.722099 L165.5459,141.00174 L165.543192,136.284459 C164.057822,136.285312 162.833676,136.388913 159.250626,136.757287 C158.954407,136.787719 158.954407,136.787719 158.659715,136.817785 C156.169042,137.071188 154.730881,137.180648 153.60423,137.180648 C110.491074,137.180648 75.5228418,102.662363 75.5228418,60.164653 C75.5228418,43.2645904 81.7526329,25.2951038 91.7334823,11.5042918 L83.9726148,11.3335412 C94.5798191,27.4363028 101.223878,44.7397865 101.223878,59.86997 C101.223878,102.367675 66.2556433,136.885958 23.14248,136.885958 C21.435826,136.885958 19.5173926,136.736029 17.3068932,136.445144 C15.618562,136.222973 13.9126168,135.944239 11.4687962,135.506646 C11.1418952,135.448111 9.09923906,135.078913 8.51915132,134.975797 L11.9444891,141.665329 L11.9444891,141.665329 Z M3.4426109,137.575211 L0.747766982,143.17682 L6.86794868,144.264743 C7.43165935,144.364948 9.46618273,144.732676 9.8058833,144.793503 C12.3814036,145.254678 14.212042,145.553786 16.0759903,145.799067 C18.6646341,146.139712 20.9781968,146.320522 23.14248,146.320522 C71.4390541,146.320522 110.658442,107.605787 110.658442,59.86997 C110.658442,42.597414 103.383068,23.6497635 91.8514252,6.14361459 L88.0945927,0.440379595 L84.0905577,5.97286401 C72.9820381,21.3218086 66.0882782,41.2064764 66.0882782,60.164653 C66.0882782,107.900475 105.307663,146.615212 153.60423,146.615212 C155.155851,146.615212 156.80732,146.489517 159.614667,146.203895 C159.916274,146.173123 159.916274,146.173123 160.215508,146.142381 C163.394873,145.81551 164.528059,145.719607 165.548608,145.719021 L172.458155,145.715054 L169.938293,139.281381 C156.833258,105.82181 124.134086,82.7524092 87.62704,82.7524092 C51.8223556,82.7524092 19.5118936,104.172969 3.4426109,137.575211 L3.4426109,137.575211 Z" id="Shape" sketch:type="MSShapeGroup"></path>
                <path d="M273.298654,97.8305985 C273.298654,120.42127 255.445713,138.687252 233.482934,138.687252 C211.520155,138.687252 193.667215,120.42127 193.667215,97.8305985 C193.667215,75.2399265 211.520155,56.973945 233.482934,56.973945 C255.445713,56.973945 273.298654,75.2399265 273.298654,97.8305985 L273.298654,97.8305985 Z M283.652159,97.8305985 C283.652159,69.5741742 261.217467,46.62044 233.482934,46.62044 C205.748401,46.62044 183.313709,69.5741742 183.313709,97.8305985 C183.313709,126.087023 205.748401,149.040757 233.482934,149.040757 C261.217467,149.040757 283.652159,126.087023 283.652159,97.8305985 L283.652159,97.8305985 Z" id="Shape" sketch:type="MSShapeGroup"></path>
                <path d="M305.757254,52.2488385 C305.757254,74.8395105 287.904313,93.105492 265.941534,93.105492 C243.978755,93.105492 226.125815,74.8395105 226.125815,52.2488385 C226.125815,29.6581665 243.978755,11.392185 265.941534,11.392185 C287.904313,11.392185 305.757254,29.6581665 305.757254,52.2488385 L305.757254,52.2488385 Z M316.110759,52.2488385 C316.110759,23.9924142 293.676067,1.03867996 265.941534,1.03867996 C238.207001,1.03867996 215.772309,23.9924142 215.772309,52.2488385 C215.772309,80.5052627 238.207001,103.458997 265.941534,103.458997 C293.676067,103.458997 316.110759,80.5052627 316.110759,52.2488385 L316.110759,52.2488385 Z" id="Shape" sketch:type="MSShapeGroup"></path>
                <path d="M342.670954,97.8306385 C342.670954,120.42131 324.818013,138.687292 302.855234,138.687292 C280.892455,138.687292 263.039515,120.42131 263.039515,97.8306385 C263.039515,75.2399665 280.892455,56.973985 302.855234,56.973985 C324.818013,56.973985 342.670954,75.2399665 342.670954,97.8306385 L342.670954,97.8306385 Z M353.024459,97.8306385 C353.024459,69.5742142 330.589767,46.62048 302.855234,46.62048 C275.120701,46.62048 252.686009,69.5742142 252.686009,97.8306385 C252.686009,126.087063 275.120701,149.040797 302.855234,149.040797 C330.589767,149.040797 353.024459,126.087063 353.024459,97.8306385 L353.024459,97.8306385 Z" id="Shape" sketch:type="MSShapeGroup"></path>
            </g>
        </g>
    </g>
</svg>
