<?xml version="1.0" encoding="UTF-8" standalone="no"?>
<!-- Created with Inkscape (http://www.inkscape.org/) -->
<svg
   xmlns:dc="http://purl.org/dc/elements/1.1/"
   xmlns:cc="http://web.resource.org/cc/"
   xmlns:rdf="http://www.w3.org/1999/02/22-rdf-syntax-ns#"
   xmlns:svg="http://www.w3.org/2000/svg"
   xmlns="http://www.w3.org/2000/svg"
   xmlns:sodipodi="http://inkscape.sourceforge.net/DTD/sodipodi-0.dtd"
   xmlns:inkscape="http://www.inkscape.org/namespaces/inkscape"
   width="595.27557pt"
   height="137.5pt"
   id="svg2"
   sodipodi:version="0.32"
   inkscape:version="0.43"
   sodipodi:docbase="C:\Documents and Settings\Owner\Desktop"
   sodipodi:docname="zoso.svg"
   version="1.0">
  <defs
     id="defs4" />
  <sodipodi:namedview
     id="base"
     pagecolor="#ffffff"
     bordercolor="#666666"
     borderopacity="1.0"
     inkscape:pageopacity="0.0"
     inkscape:pageshadow="2"
     inkscape:zoom="2.8"
     inkscape:cx="-40.347675"
     inkscape:cy="80.835643"
     inkscape:document-units="px"
     inkscape:current-layer="layer1"
     showguides="true"
     inkscape:guide-bbox="true"
     inkscape:window-width="1024"
     inkscape:window-height="671"
     inkscape:window-x="-4"
     inkscape:window-y="-4">
    <sodipodi:guide
       orientation="horizontal"
       position="466.69048"
       id="guide4147" />
    <sodipodi:guide
       orientation="horizontal"
       position="888.57143"
       id="guide4495" />
  </sodipodi:namedview>
  <metadata
     id="metadata7">
    <rdf:RDF>
      <cc:Work
         rdf:about="">
        <dc:format>image/svg+xml</dc:format>
        <dc:type
           rdf:resource="http://purl.org/dc/dcmitype/StillImage" />
      </cc:Work>
    </rdf:RDF>
  </metadata>
  <g
     inkscape:label="Layer 1"
     inkscape:groupmode="layer"
     id="layer1">
    <path
       id="path3235"
       style="fill:none;fill-opacity:1;stroke:#000000;stroke-width:9.43456364;stroke-miterlimit:4;stroke-dasharray:none;stroke-opacity:1"
       d="M 380.78581,96.921309 C 380.78581,127.90431 355.3124,153.04995 323.92553,153.04995 C 292.53866,153.04995 267.06525,127.90431 267.06525,96.921309 C 267.06525,65.938307 292.53866,40.792677 323.92553,40.792677 C 355.3124,40.792677 380.78581,65.938307 380.78581,96.921309 z M 243.69355,140.62027 C 258.69801,109.43141 289.04605,88.469691 323.62704,88.469691 C 359.18333,88.469691 389.5281,111.31808 401.5459,142.00174 C 398.51531,142.00348 393.0392,142.89793 389.60423,142.89793 C 343.89937,142.89793 306.80556,106.28142 306.80556,61.164653 C 306.80556,42.193813 314.06056,23.350609 323.91202,9.7385779 C 333.05873,23.624168 341.94116,42.580038 341.94116,60.86997 C 341.94116,105.98673 304.84735,142.60324 259.14248,142.60324 C 254.10785,142.60324 248.48113,141.47131 243.69355,140.62027 z "
       sodipodi:nodetypes="csssccscsscssc" />
    <path
       sodipodi:type="arc"
       style="fill:none;fill-opacity:1;stroke:#000000;stroke-width:31.25;stroke-miterlimit:4;stroke-dasharray:none;stroke-opacity:1"
       id="path4149"
       sodipodi:cx="705.08649"
       sodipodi:cy="422.02701"
       sodipodi:rx="137.38075"
       sodipodi:ry="137.38075"
       d="M 842.46724 422.02701 A 137.38075 137.38075 0 1 1  567.70573,422.02701 A 137.38075 137.38075 0 1 1  842.46724 422.02701 z"
       transform="matrix(0.327502,0,0,0.335079,238.5657,-42.58179)" />
    <path
       sodipodi:type="arc"
       style="fill:none;fill-opacity:1;stroke:#000000;stroke-width:31.25;stroke-miterlimit:4;stroke-dasharray:none;stroke-opacity:1"
       id="path4151"
       sodipodi:cx="705.08649"
       sodipodi:cy="422.02701"
       sodipodi:rx="137.38075"
       sodipodi:ry="137.38075"
       d="M 842.46724 422.02701 A 137.38075 137.38075 0 1 1  567.70573,422.02701 A 137.38075 137.38075 0 1 1  842.46724 422.02701 z"
       transform="matrix(0.327502,0,0,0.335079,271.0243,-88.16355)" />
    <path
       sodipodi:type="arc"
       style="fill:none;fill-opacity:1;stroke:#000000;stroke-width:31.25;stroke-miterlimit:4;stroke-dasharray:none;stroke-opacity:1"
       id="path4153"
       sodipodi:cx="705.08649"
       sodipodi:cy="422.02701"
       sodipodi:rx="137.38075"
       sodipodi:ry="137.38075"
       d="M 842.46724 422.02701 A 137.38075 137.38075 0 1 1  567.70573,422.02701 A 137.38075 137.38075 0 1 1  842.46724 422.02701 z"
       transform="matrix(0.327502,0,0,0.335079,307.938,-42.58175)" />
    <path
       sodipodi:type="arc"
       style="fill:none;fill-opacity:1;stroke:#000000;stroke-width:31.25;stroke-miterlimit:4;stroke-dasharray:none;stroke-opacity:1"
       id="path4155"
       sodipodi:cx="705.08649"
       sodipodi:cy="422.02701"
       sodipodi:rx="137.38075"
       sodipodi:ry="137.38075"
       d="M 842.46724 422.02701 A 137.38075 137.38075 0 1 1  567.70573,422.02701 A 137.38075 137.38075 0 1 1  842.46724 422.02701 z"
       transform="matrix(0.481921,0,0,0.482127,329.6349,-127.9142)" />
    <path
       style="color:#000000;fill:none;fill-opacity:1;fill-rule:nonzero;stroke:#000000;stroke-width:1.9885999;stroke-linecap:butt;stroke-linejoin:miter;marker:none;marker-start:none;marker-mid:none;marker-end:none;stroke-miterlimit:4;stroke-dasharray:none;stroke-dashoffset:0;stroke-opacity:1;visibility:visible;display:inline;overflow:visible"
       d="M 663.89739,116.74092 C 670.53208,116.74092 677.14294,112.38864 677.14294,97.488704 C 678.10696,82.781225 676.01826,68.22447 678.10696,53.195513 C 680.19566,38.166556 693.53116,37.622414 693.53116,37.622414 C 693.53116,37.622414 693.93285,35.854302 690.96047,32.478815 C 687.98809,29.103328 680.33139,22.834564 672.64422,22.834564 C 664.97366,22.834564 650.79326,28.460376 650.79326,45.337814 C 650.79326,62.215252 651.75728,77.212017 651.75728,94.09659 C 651.75728,110.97456 657.08439,116.74092 663.89739,116.74092 z "
       id="path4173"
       sodipodi:nodetypes="cczczzzzc" />
    <path
       style="color:#000000;fill:#000000;fill-opacity:1;fill-rule:nonzero;stroke:#000000;stroke-width:1.9885999;stroke-linecap:butt;stroke-linejoin:miter;marker:none;marker-start:none;marker-mid:none;marker-end:none;stroke-miterlimit:4;stroke-dasharray:none;stroke-dashoffset:0;stroke-opacity:1;visibility:visible;display:inline;overflow:visible"
       id="path4187"
       d="M 659.58198,129.97613 C 660.67519,130.01005 662.76071,130.14719 662.76071,124.50099 C 662.76071,118.82443 662.34315,87.910968 662.3707,85.82352 C 662.39825,83.736072 661.99158,48.246324 662.20993,46.256301 C 662.42828,44.266278 666.9445,39.359769 670.01201,37.086701 C 673.07952,34.813633 680.24379,33.510625 680.24379,33.510625 C 679.3389,34.279656 676.65717,35.998357 675.37639,37.030032 C 674.09561,38.061708 668.48176,45.516085 666.87065,48.07671 C 665.25954,50.637335 666.26778,117.0057 666.26778,123.75315 C 666.26778,130.52044 661.01543,131.7655 659.58198,129.97613 z "
       sodipodi:nodetypes="czzzzczzzc" />
    <path
       style="color:#000000;fill:none;fill-opacity:1;fill-rule:nonzero;stroke:#000000;stroke-width:1.9885999;stroke-linecap:butt;stroke-linejoin:miter;marker:none;marker-start:none;marker-mid:none;marker-end:none;stroke-miterlimit:4;stroke-dasharray:none;stroke-dashoffset:0;stroke-opacity:1;visibility:visible;display:inline;overflow:visible"
       d="M 663.03373,108.70097 C 661.59821,107.26484 655.30056,99.827924 654.62659,99.15365"
       id="path4201"
       sodipodi:nodetypes="cc" />
    <path
       style="color:#000000;fill:none;fill-opacity:1;fill-rule:nonzero;stroke:#000000;stroke-width:1.9885999;stroke-linecap:butt;stroke-linejoin:miter;marker:none;marker-start:none;marker-mid:none;marker-end:none;stroke-miterlimit:4;stroke-dasharray:none;stroke-dashoffset:0;stroke-opacity:1;visibility:visible;display:inline;overflow:visible"
       d="M 663.03373,100.06292 C 661.59821,98.626788 655.07334,90.735237 654.39936,90.060964"
       id="path4205"
       sodipodi:nodetypes="cc" />
    <path
       style="color:#000000;fill:none;fill-opacity:1;fill-rule:nonzero;stroke:#000000;stroke-width:1.9885999;stroke-linecap:butt;stroke-linejoin:miter;marker:none;marker-start:none;marker-mid:none;marker-end:none;stroke-miterlimit:4;stroke-dasharray:none;stroke-dashoffset:0;stroke-opacity:1;visibility:visible;display:inline;overflow:visible"
       d="M 663.26093,90.74292 C 661.8254,89.306787 655.0733,81.187921 654.39933,80.513648"
       id="path4207"
       sodipodi:nodetypes="cc" />
    <path
       style="color:#000000;fill:none;fill-opacity:1;fill-rule:nonzero;stroke:#000000;stroke-width:1.9885999;stroke-linecap:butt;stroke-linejoin:miter;marker:none;marker-start:none;marker-mid:none;marker-end:none;stroke-miterlimit:4;stroke-dasharray:none;stroke-dashoffset:0;stroke-opacity:1;visibility:visible;display:inline;overflow:visible"
       d="M 663.48818,81.877549 C 662.05266,80.441416 655.07337,73.004499 654.39939,72.330226"
       id="path4209"
       sodipodi:nodetypes="cc" />
    <path
       style="color:#000000;fill:none;fill-opacity:1;fill-rule:nonzero;stroke:#000000;stroke-width:1.9885999;stroke-linecap:butt;stroke-linejoin:miter;marker:none;marker-start:none;marker-mid:none;marker-end:none;stroke-miterlimit:4;stroke-dasharray:none;stroke-dashoffset:0;stroke-opacity:1;visibility:visible;display:inline;overflow:visible"
       d="M 663.71538,73.921452 C 662.27985,72.485319 655.9822,65.957673 655.30823,65.2834"
       id="path4211"
       sodipodi:nodetypes="cc" />
    <path
       style="color:#000000;fill:none;fill-opacity:1;fill-rule:nonzero;stroke:#000000;stroke-width:1.9885999;stroke-linecap:butt;stroke-linejoin:miter;marker:none;marker-start:none;marker-mid:none;marker-end:none;stroke-miterlimit:4;stroke-dasharray:none;stroke-dashoffset:0;stroke-opacity:1;visibility:visible;display:inline;overflow:visible"
       d="M 663.9426,65.510718 C 662.50707,64.074585 655.75498,56.183034 655.081,55.508761"
       id="path4213"
       sodipodi:nodetypes="cc" />
    <path
       style="color:#000000;fill:none;fill-opacity:1;fill-rule:nonzero;stroke:#000000;stroke-width:1.9885999;stroke-linecap:butt;stroke-linejoin:miter;marker:none;marker-start:none;marker-mid:none;marker-end:none;stroke-miterlimit:4;stroke-dasharray:none;stroke-dashoffset:0;stroke-opacity:1;visibility:visible;display:inline;overflow:visible"
       d="M 664.16983,56.190714 C 662.7343,54.75458 656.20943,46.408396 655.53545,45.734123"
       id="path4215"
       sodipodi:nodetypes="cc" />
    <path
       style="color:#000000;fill:none;fill-opacity:1;fill-rule:nonzero;stroke:#000000;stroke-width:1.9885999;stroke-linecap:butt;stroke-linejoin:miter;marker:none;marker-start:none;marker-mid:none;marker-end:none;stroke-miterlimit:4;stroke-dasharray:none;stroke-dashoffset:0;stroke-opacity:1;visibility:visible;display:inline;overflow:visible"
       d="M 664.16986,49.143885 C 662.73433,47.707751 659.16331,37.315713 658.48934,36.64144"
       id="path4217"
       sodipodi:nodetypes="cc" />
    <path
       style="color:#000000;fill:none;fill-opacity:1;fill-rule:nonzero;stroke:#000000;stroke-width:1.9885999;stroke-linecap:butt;stroke-linejoin:miter;marker:none;marker-start:none;marker-mid:none;marker-end:none;stroke-miterlimit:4;stroke-dasharray:none;stroke-dashoffset:0;stroke-opacity:1;visibility:visible;display:inline;overflow:visible"
       d="M 667.23728,44.59754 C 665.80175,43.161407 666.32071,32.542053 665.64674,31.86778"
       id="path4225"
       sodipodi:nodetypes="cc" />
    <path
       style="color:#000000;fill:none;fill-opacity:1;fill-rule:nonzero;stroke:#000000;stroke-width:1.9885999;stroke-linecap:butt;stroke-linejoin:miter;marker:none;marker-start:none;marker-mid:none;marker-end:none;stroke-miterlimit:4;stroke-dasharray:none;stroke-dashoffset:0;stroke-opacity:1;visibility:visible;display:inline;overflow:visible"
       d="M 671.78167,38.914609 C 670.34615,37.478476 675.18231,29.35961 674.50834,28.685337"
       id="path4227"
       sodipodi:nodetypes="cc" />
    <path
       style="color:#000000;fill:none;fill-opacity:1;fill-rule:nonzero;stroke:#000000;stroke-width:1.9885999;stroke-linecap:butt;stroke-linejoin:miter;marker:none;marker-start:none;marker-mid:none;marker-end:none;stroke-miterlimit:4;stroke-dasharray:none;stroke-dashoffset:0;stroke-opacity:1;visibility:visible;display:inline;overflow:visible"
       d="M 666.60106,109.36019 C 668.03659,107.92406 674.33423,100.48714 675.00821,99.812871"
       id="path4229"
       sodipodi:nodetypes="cc" />
    <path
       style="color:#000000;fill:none;fill-opacity:1;fill-rule:nonzero;stroke:#000000;stroke-width:1.9885999;stroke-linecap:butt;stroke-linejoin:miter;marker:none;marker-start:none;marker-mid:none;marker-end:none;stroke-miterlimit:4;stroke-dasharray:none;stroke-dashoffset:0;stroke-opacity:1;visibility:visible;display:inline;overflow:visible"
       d="M 666.60106,100.72214 C 668.03659,99.286008 674.56146,91.394458 675.23543,90.720184"
       id="path4231"
       sodipodi:nodetypes="cc" />
    <path
       style="color:#000000;fill:none;fill-opacity:1;fill-rule:nonzero;stroke:#000000;stroke-width:1.9885999;stroke-linecap:butt;stroke-linejoin:miter;marker:none;marker-start:none;marker-mid:none;marker-end:none;stroke-miterlimit:4;stroke-dasharray:none;stroke-dashoffset:0;stroke-opacity:1;visibility:visible;display:inline;overflow:visible"
       d="M 666.37387,91.40214 C 667.80939,89.966007 674.56149,81.847141 675.23547,81.172868"
       id="path4233"
       sodipodi:nodetypes="cc" />
    <path
       style="color:#000000;fill:none;fill-opacity:1;fill-rule:nonzero;stroke:#000000;stroke-width:1.9885999;stroke-linecap:butt;stroke-linejoin:miter;marker:none;marker-start:none;marker-mid:none;marker-end:none;stroke-miterlimit:4;stroke-dasharray:none;stroke-dashoffset:0;stroke-opacity:1;visibility:visible;display:inline;overflow:visible"
       d="M 666.14661,82.536769 C 667.58214,81.100636 674.56143,73.663719 675.2354,72.989446"
       id="path4235"
       sodipodi:nodetypes="cc" />
    <path
       style="color:#000000;fill:none;fill-opacity:1;fill-rule:nonzero;stroke:#000000;stroke-width:1.9885999;stroke-linecap:butt;stroke-linejoin:miter;marker:none;marker-start:none;marker-mid:none;marker-end:none;stroke-miterlimit:4;stroke-dasharray:none;stroke-dashoffset:0;stroke-opacity:1;visibility:visible;display:inline;overflow:visible"
       d="M 665.91942,74.580672 C 667.35495,73.144539 673.65259,66.616893 674.32657,65.94262"
       id="path4237"
       sodipodi:nodetypes="cc" />
    <path
       style="color:#000000;fill:none;fill-opacity:1;fill-rule:nonzero;stroke:#000000;stroke-width:1.9885999;stroke-linecap:butt;stroke-linejoin:miter;marker:none;marker-start:none;marker-mid:none;marker-end:none;stroke-miterlimit:4;stroke-dasharray:none;stroke-dashoffset:0;stroke-opacity:1;visibility:visible;display:inline;overflow:visible"
       d="M 665.69219,66.169939 C 667.12772,64.733805 674.78868,56.614936 675.46266,55.940663"
       id="path4239"
       sodipodi:nodetypes="cc" />
    <path
       style="color:#000000;fill:none;fill-opacity:1;fill-rule:nonzero;stroke:#000000;stroke-width:1.9885999;stroke-linecap:butt;stroke-linejoin:miter;marker:none;marker-start:none;marker-mid:none;marker-end:none;stroke-miterlimit:4;stroke-dasharray:none;stroke-dashoffset:0;stroke-opacity:1;visibility:visible;display:inline;overflow:visible"
       d="M 665.46497,56.849934 C 666.9005,55.413801 676.37922,46.840298 677.0532,46.166024"
       id="path4241"
       sodipodi:nodetypes="cc" />
    <path
       style="color:#000000;fill:none;fill-opacity:1;fill-rule:nonzero;stroke:#000000;stroke-width:1.9885999;stroke-linecap:butt;stroke-linejoin:miter;marker:none;marker-start:none;marker-mid:none;marker-end:none;stroke-miterlimit:4;stroke-dasharray:none;stroke-dashoffset:0;stroke-opacity:1;visibility:visible;display:inline;overflow:visible"
       d="M 668.71422,45.961441 C 670.14975,44.525308 678.49235,41.862051 679.16633,41.187778"
       id="path4243"
       sodipodi:nodetypes="cc" />
    <path
       style="color:#000000;fill:none;fill-opacity:1;fill-rule:nonzero;stroke:#000000;stroke-width:1.9885999;stroke-linecap:butt;stroke-linejoin:miter;marker:none;marker-start:none;marker-mid:none;marker-end:none;stroke-miterlimit:4;stroke-dasharray:none;stroke-dashoffset:0;stroke-opacity:1;visibility:visible;display:inline;overflow:visible"
       d="M 672.12253,40.61949 C 673.55805,39.183357 682.80952,36.747418 683.4835,36.073145"
       id="path4245"
       sodipodi:nodetypes="cc" />
    <path
       style="color:#000000;fill:none;fill-opacity:1;fill-rule:nonzero;stroke:#000000;stroke-width:1.9885999;stroke-linecap:butt;stroke-linejoin:miter;marker:none;marker-start:none;marker-mid:none;marker-end:none;stroke-miterlimit:4;stroke-dasharray:none;stroke-dashoffset:0;stroke-opacity:1;visibility:visible;display:inline;overflow:visible"
       d="M 673.71307,36.414125 C 675.14859,34.977991 684.40006,32.542053 685.07404,31.86778"
       id="path4247"
       sodipodi:nodetypes="cc" />
    <path
       style="color:#000000;fill:#000000;fill-opacity:1;fill-rule:nonzero;stroke:#000000;stroke-width:0;stroke-linecap:butt;stroke-linejoin:miter;marker:none;marker-start:none;marker-mid:none;marker-end:none;stroke-miterlimit:4;stroke-dasharray:none;stroke-dashoffset:0;stroke-opacity:1;visibility:visible;display:inline;overflow:visible"
       d="M 25.65625,14.6875 C 19.513093,14.804377 13.629728,15.40797 8.625,16.75 C -7.800775,21.15461 4.7815126,35.673818 4.8125,35.84375 C 10.353379,27.296954 5.5727595,26.522321 30.96875,26.522321 C 44.902779,26.522321 58.58459,25.977712 49.25,36.3125 C 36.118693,50.850822 10.371231,76.314807 1,90.34375 C 28.680553,120.57802 44.332189,143.0551 66.0625,161.0625 C 74.837213,168.33391 84.258744,171.65712 90.915179,171.56696 C 97.571614,171.47682 100.13519,168.93449 104,166.9375 C 108.05436,164.84257 115.625,155.67265 115.625,145.5 C 115.625,145.5 166.46601,145.78633 195.21875,145.09375 C 223.97149,144.40117 242.19913,117.16788 241.8125,116.78125 C 242.21777,117.02441 212.29635,138.47156 195.15625,138.59375 C 178.01615,138.71594 157.40625,138.40625 157.40625,138.40625 C 157.40625,138.40625 156.66071,128.92857 160.53571,122.45982 C 164.41071,115.99107 172.90625,112.53125 172.90625,112.53125 L 134.75,112.90625 C 134.75,112.90625 142.9029,115.97656 146.94196,122.34375 C 150.98103,128.71094 150.90625,138.375 150.90625,138.375 L 115.1875,138.1875 C 114.15398,132.91745 111.7377,126.95909 108.96875,124.4375 C 105.08089,120.89696 104.71499,120.20578 99.0625,119.4375 C 93.410009,118.66922 91.464545,118.66536 86.34375,121.34375 C 81.222951,124.02214 76.11769,133.57845 75.9375,137.3125 C 75.757306,141.04655 80.351724,148.2809 83.53125,146.65625 C 86.710775,145.0316 88.912116,141.5653 90.59375,138.59375 C 91.224363,137.47942 91.458514,136.8017 91.46875,136.34375 C 91.468809,136.2876 91.475674,136.20638 91.46875,136.15625 C 91.464734,136.13164 91.443129,136.08581 91.4375,136.0625 C 91.43135,136.0396 91.413916,135.9905 91.40625,135.96875 C 91.400813,135.95449 91.381073,135.92006 91.375,135.90625 C 91.180321,135.49143 86.78706,136.44882 86.71875,136.375 C 85.747229,135.32511 86.17816,130.57508 88.267857,128.58929 C 90.378043,126.58402 96.826437,126.52983 100.16518,128.4375 C 104.40695,130.86113 107.875,134.57769 107.875,141.90625 C 107.875,149.59185 105.77195,151.6434 102.0625,155.29018 C 98.913146,158.38633 86.939599,165.59585 74.5,153.15625 C 56.80499,135.46124 30.82184,106.03035 15.09375,90.40625 C 13.737576,89.059043 49.900138,46.975157 62,32.03125 C 68.853437,23.566928 73.324089,20.729822 73.375,19.53125 C 73.374791,19.506915 73.347771,19.460491 73.34375,19.4375 C 73.340217,19.422461 73.348996,19.389479 73.34375,19.375 C 73.322378,19.325277 73.261463,19.262313 73.21875,19.21875 C 73.205665,19.206534 73.171107,19.168021 73.15625,19.15625 C 72.431913,18.62468 39.675249,14.420781 25.65625,14.6875 z "
       id="path4255"
       sodipodi:nodetypes="csccscsssczczczcczccsssssssssssssszsssssssssc" />
    <path
       style="color:#000000;fill:#000000;fill-opacity:1;fill-rule:nonzero;stroke:#000000;stroke-width:0;stroke-linecap:butt;stroke-linejoin:miter;marker:none;marker-start:none;marker-mid:none;marker-end:none;stroke-miterlimit:4;stroke-dasharray:none;stroke-dashoffset:0;stroke-opacity:1;visibility:visible;display:inline;overflow:visible"
       d="M 115.6875,20.290179 C 115.6875,35.792825 130.01961,55.53365 131.5625,57.78125 L 115.4375,57.78125 C 114.71343,41.943692 102.66751,29.59375 88.46875,29.59375 C 73.821815,29.59375 61.46875,42.724933 61.46875,59.28125 C 61.46875,75.837568 73.82182,88.968746 88.46875,88.96875 C 102.65797,88.968748 114.69873,76.63472 115.4375,60.8125 L 133.625,60.8125 C 137.07847,65.839542 145.36161,77.789607 145.36161,84.370536 C 145.36161,94.125197 141.24284,95.71875 135.84821,95.71875 C 130.75263,95.71875 121.59143,84.986918 122.03125,82.40625 C 122.03343,82.391554 122.0308,82.360272 122.03125,82.34375 C 122.03092,82.301696 122.03155,82.249247 122.03125,82.21875 C 122.03076,82.20696 122.03073,82.174095 122.03125,82.15625 C 122.03121,82.152281 122.03144,82.128411 122.03125,82.125 C 122.03131,82.122262 122.03107,82.096824 122.03125,82.09375 C 122.02576,82.082651 122.00572,82.042088 122,82.03125 C 122.0001,82.028472 121.99967,82.003237 122,82 C 121.99436,81.994412 121.97445,81.974275 121.96875,81.96875 C 121.96512,81.964536 121.94135,81.941465 121.9375,81.9375 C 121.93343,81.933782 121.91054,81.909722 121.90625,81.90625 C 121.89045,81.897796 121.8558,81.880101 121.84375,81.875 C 121.83286,81.869248 121.79235,81.849268 121.78125,81.84375 C 121.77813,81.843902 121.75275,81.843698 121.75,81.84375 C 121.73923,81.843718 121.69847,81.843556 121.6875,81.84375 C 121.67319,81.843357 121.64007,81.843256 121.625,81.84375 C 121.59697,81.843706 121.52967,81.841856 121.5,81.84375 C 119.69603,82.165367 115.81439,87.10526 114.66071,89.53125 C 113.24759,92.502799 128.58063,104.53571 135.83035,104.53571 C 146.20379,104.53571 154.1875,95.706211 154.1875,84.96875 C 154.1875,73.518487 150.03677,69.989293 144.6875,60.8125 L 160.40625,60.8125 C 161.14502,76.63472 173.18579,88.968746 187.375,88.96875 C 202.02194,88.968752 214.40625,75.837566 214.40625,59.28125 C 214.40624,42.724935 202.02194,29.59375 187.375,29.59375 C 173.16944,29.593751 161.11979,41.932737 160.40625,57.78125 L 142.875,57.78125 C 141.06301,54.811449 121.6447,36.309763 124.15625,20.477679 C 125.10775,14.479685 127.78749,11.639343 132.96429,10.410714 C 141.98032,8.2709048 145.375,20.65625 145.375,20.65625 C 145.375,20.65625 151.68107,17.408811 152.5625,14.625 C 153.44393,11.84119 141.67314,1.0625 133.55804,1.0625 C 125.79972,1.0625 115.6875,11.758251 115.6875,20.290179 z M 78.78125,40.8125 C 78.946989,40.800463 79.111001,40.8125 79.28125,40.8125 C 86.45169,40.8125 96.728088,47.37455 102.3125,57.78125 L 90.84375,57.78125 C 90.138004,56.309525 88.728003,55.312499 87.09375,55.3125 C 84.756482,55.3125 82.84375,57.371192 82.84375,59.90625 C 82.84375,62.441296 84.756482,64.499998 87.09375,64.5 C 89.138849,64.5 90.854963,62.904589 91.25,60.8125 L 103.78125,60.8125 C 104.34394,62.161668 104.7991,63.581433 105.1875,65.03125 C 107.44063,73.441724 107.09177,79.28125 98.375,79.28125 C 89.658227,79.281242 75.292337,73.031397 71.40625,64.65625 C 67.84706,56.985619 70.461173,41.416757 78.78125,40.8125 z M 177.59375,40.8125 C 177.79155,40.795219 178.01445,40.8125 178.21875,40.8125 C 186.93553,40.812499 200.23891,50.525266 204.125,65.03125 C 206.37811,73.441728 205.99802,79.28125 197.28125,79.28125 C 188.56447,79.281247 174.19858,73.000146 170.3125,64.625 C 169.78784,63.49427 169.38223,62.212325 169.125,60.8125 L 184.15625,60.8125 C 184.85791,62.297659 186.26285,63.312499 187.90625,63.3125 C 190.24351,63.3125 192.15625,61.253794 192.15625,58.71875 C 192.15625,56.183691 190.2435,54.125 187.90625,54.125 C 187.79669,54.125 187.67132,54.122794 187.5625,54.125 C 187.54896,54.125523 187.51672,54.125498 187.5,54.125 C 187.49604,54.125028 187.47245,54.124826 187.46875,54.125 C 185.61907,54.328944 184.11682,55.838588 183.75,57.78125 L 168.78125,57.78125 C 168.40858,50.183421 171.41792,41.352062 177.59375,40.8125 z "
       id="path4265"
       sodipodi:nodetypes="cccsssccssssssssssssssssssssszccsssccsscszscsccsssccsssccssssccssssssccc" />
    <g
       id="g1429" />
  </g>
</svg>
