<?xml version="1.0" encoding="UTF-8" standalone="no"?>
<svg width="439px" height="59px" viewBox="0 0 439 59" version="1.1" xmlns="http://www.w3.org/2000/svg" xmlns:xlink="http://www.w3.org/1999/xlink" xmlns:sketch="http://www.bohemiancoding.com/sketch/ns">
    <!-- Generator: Sketch 3.3 (11970) - http://www.bohemiancoding.com/sketch -->
    <title>logo-white</title>
    <desc>Created with Sketch.</desc>
    <defs></defs>
    <g id="Welcome" stroke="none" stroke-width="1" fill="none" fill-rule="evenodd" sketch:type="MSPage">
        <g id="Home" sketch:type="MSArtboardGroup" transform="translate(-292.000000, -1488.000000)" fill="#FFFFFF">
            <g id="Rect-+-At-Lookback-I’m-buil-+-logo" sketch:type="MSLayerGroup" transform="translate(0.000000, 1366.000000)">
                <g id="logo-white" transform="translate(292.000000, 122.000000)" sketch:type="MSShapeGroup">
                    <g id="lookback" transform="translate(152.000000, 0.000000)">
                        <g id="Group">
                            <path d="M10.5533708,58 C3.00842697,58 0,54.7804878 0,49.3658537 C0,48.0487805 0.238764045,46.6341463 0.525280899,45.0243902 L9.83707865,0 L17,0 L7.59269663,45.3658537 C7.35393258,46.2926829 7.21067416,47.3170732 7.21067416,48.0487805 C7.21067416,50 8.35674157,51.1219512 10.6011236,51.1219512 C11.0786517,51.1219512 11.508427,51.0243902 12.0814607,50.8780488 L10.5533708,58 L10.5533708,58 Z" id="Shape"></path>
                            <path d="M21,42.2855628 C21,28.3405825 27.8,14 41.2043165,14 C50.8417266,14 55,21.5658935 55,30.7141962 C55,44.6591764 48.542446,58.999759 34.7956835,58.999759 C25.1582734,59.0492093 21,51.4833157 21,42.2855628 L21,42.2855628 Z M48,31.8660436 C48,25.1869159 45.3762376,21 40.4257426,21 C33.1485149,21 28,32.3146417 28,42.1339564 C28,48.7133956 30.7227723,53 35.4752475,53 C42.8514851,53 48,41.5856698 48,31.8660436 L48,31.8660436 Z" id="Shape"></path>
                            <path d="M61,42.2855628 C61,28.3405825 67.8,14 81.2043165,14 C90.8417266,14 95,21.5658935 95,30.7141962 C95,44.6591764 88.542446,58.999759 74.7956835,58.999759 C65.1582734,59.0492093 61,51.4833157 61,42.2855628 L61,42.2855628 Z M88,31.8660436 C88,25.1869159 85.3762376,21 80.4257426,21 C73.1485149,21 68,32.3146417 68,42.1339564 C68,48.7133956 70.7227723,53 75.4752475,53 C82.8019802,53 88,41.5856698 88,31.8660436 L88,31.8660436 Z" id="Shape"></path>
                            <path d="M128.734072,57.7548605 C128.200831,57.7548605 127.085873,58 125.777008,58 C120.83241,58 117.875346,56.0879121 115.403047,51.920541 C112.688366,47.4099746 111.961219,42.3601014 108.66482,41.3305156 L108.519391,41.3305156 C108.373961,42.2620456 108.034626,44.419273 107.501385,47.1158073 L105.222992,57.7058326 L98,57.7058326 L110.119114,0 L117.293629,0 L114.772853,11.9137785 C113.99723,15.6398986 113.463989,17.8461538 112.979224,19.4150465 L113.124654,19.4150465 C115.451524,16.1792054 118.893352,13.8258664 123.304709,13.8258664 C129.84903,13.8258664 133,18.238377 133,23.6804734 C133,30.7895182 127.279778,39.5655114 116.227147,40.9873204 C116.227147,41.0853762 116.130194,41.0853762 116.130194,41.1344041 C120.056787,43.6838546 120.105263,51.4792899 126.891967,51.4792899 C128.152355,51.4792899 129.073407,51.3322063 130.188366,51.0870668 L128.734072,57.7548605 L128.734072,57.7548605 Z M110,37 C120.874251,37 126,30.9533528 126,25.1049563 C126,22.1311953 124.227545,20 120.922156,20 C116.131737,20 112.586826,24.5597668 111.293413,30.9533528 L110,37 L110,37 Z" id="Shape"></path>
                            <path d="M147.848889,0 L155.084444,0 L152.395556,12.7701342 C151.76,15.7399329 150.831111,19.4521812 150.831111,19.4521812 L150.977778,19.4521812 C153.031111,16.4328859 156.111111,13.9580537 160.804444,13.9580537 C167.795556,13.9580537 172,19.1552013 172,28.8565436 C172,44.8934564 163.982222,59 151.613333,59 C144.377778,59 139,54.1988255 139,44.6459732 C139,42.6661074 139.244444,40.4387584 139.782222,37.9639262 L147.848889,0 L147.848889,0 Z M146.498688,40.55 C146.199475,42.15 146,43.6 146,45 C146,50.1 148.343832,53 152.532808,53 C160.56168,53 165,38.75 165,29.7 C165,24.45 163.404199,21 158.666667,21 C152.88189,21 149.490814,26.9 148.393701,32.05 L146.498688,40.55 L146.498688,40.55 Z" id="Shape"></path>
                            <path d="M210.316832,58.6542261 C203.103253,58.6542261 200.794908,55.9374314 200.458274,51.3435785 L200.314003,51.3435785 C198.149929,55.2458836 195.120226,59 188.916549,59 C181.462518,59 178,52.726674 178,43.7859495 C178,29.3622393 185.454031,14 198.24611,14 C206.46959,14 210.942008,19.8287596 210.942008,26.7442371 C210.942008,28.3249177 210.701556,29.856202 210.316832,31.7826564 L207.38331,45.9593853 C207.239038,46.8485181 207.094767,47.6388584 207.094767,48.3304061 C207.094767,50.701427 208.248939,51.6893524 210.509194,51.6893524 C210.990099,51.6893524 211.422914,51.5905598 212,51.442371 L210.316832,58.6542261 L210.316832,58.6542261 Z M203.111688,33.9201268 C203.901299,29.3129498 204,28.7620917 204,28.1110776 C204,24.3051487 201.927273,21 197.781818,21 C190.625974,21 185,31.9670844 185,44.1360411 C185,48.9936081 186.332468,52.999849 191.218182,52.999849 C198.719481,53.049927 201.927273,40.6305803 203.111688,33.9201268 L203.111688,33.9201268 Z" id="Shape"></path>
                            <path d="M246.394303,50.5038419 C242.892054,55.8386389 239.293853,59 232.769115,59 C223.941529,59 219,52.5290889 219,42.6004391 C219,30.2019759 224.853073,14 238.622189,14 C245.338831,14 249.272864,18.1492865 251,23.780461 L244.811094,27.9297475 C244.331334,23.5334797 241.932534,20.9154775 238.094453,20.9154775 C230.610195,20.9154775 226.196402,32.5236004 226.196402,41.5137212 C226.196402,48.67618 228.73913,52.0845225 233.392804,52.0845225 C236.703148,52.0845225 239.341829,49.5159166 241.644678,45.6136114 L246.394303,50.5038419 L246.394303,50.5038419 Z" id="Shape"></path>
                            <path d="M282.685596,57.7548605 C282.152355,57.7548605 281.037396,58 279.728532,58 C274.783934,58 271.82687,56.0879121 269.354571,51.920541 C266.639889,47.4099746 265.912742,42.3601014 262.616343,41.3305156 L262.470914,41.3305156 C262.325485,42.2620456 261.98615,44.419273 261.452909,47.1158073 L259.174515,57.7058326 L252,57.7058326 L264.119114,0 L271.293629,0 L268.772853,11.9137785 C267.99723,15.6398986 267.463989,17.8461538 266.979224,19.4150465 L267.124654,19.4150465 C269.451524,16.1792054 272.893352,13.8258664 277.304709,13.8258664 C283.84903,13.8258664 287,18.238377 287,23.6804734 C287,30.7895182 281.279778,39.5655114 270.227147,40.9873204 C270.227147,41.0853762 270.130194,41.0853762 270.130194,41.1344041 C274.056787,43.6838546 274.105263,51.4792899 280.891967,51.4792899 C282.152355,51.4792899 283.073407,51.3322063 284.188366,51.0870668 L282.685596,57.7548605 L282.685596,57.7548605 Z M264,37 C274.874251,37 280,30.9533528 280,25.1049563 C280,22.1311953 278.227545,20 274.922156,20 C270.131737,20 266.586826,24.5597668 265.293413,30.9533528 L264,37 L264,37 Z" id="Shape"></path>
                        </g>
                    </g>
                    <g id="mark">
                        <path d="M94.1415615,0 C87.4483438,0 79.2030757,4.15075377 68.7752366,12.69933 C66.0106467,15.0217755 63.4885647,17.1959799 61.3544953,19.1725293 C59.317429,17.2453936 56.795347,15.0217755 53.9337539,12.69933 C43.6514196,4.15075377 35.2606467,0 28.7129338,0 C12.9014196,0 0,13.2922948 0,29.5 C0,45.8559464 12.9014196,59 28.7129338,59 C35.4061514,59 43.6514196,54.8492462 54.0792587,46.30067 C56.8438486,43.9782245 59.3659306,41.8040201 61.5,39.8274707 C63.5370662,41.7546064 66.0591483,43.9782245 68.9207413,46.30067 C79.3485804,54.8492462 87.5938486,59 94.2870662,59 C110.09858,59 123,45.7077052 123,29.5 C122.854495,13.2922948 109.904574,0 94.1415615,0 L94.1415615,0 Z M45.1135135,34.6660929 C34.2162162,43.5507745 29.6432432,44 28.9135135,44 C21.227027,44 15,37.4612737 15,29.475043 C15,21.4888124 21.2756757,15 28.9135135,15 C29.7405405,15 34.2162162,15.4991394 45.1135135,24.3339071 C47.2540541,26.080895 49.2972973,27.9277108 51,29.524957 C49.2,31.1222031 47.3027027,32.8192771 45.1135135,34.6660929 L45.1135135,34.6660929 Z M65.3179191,36 L55.7369942,34.6961652 L55,24.9675516 L61.0924855,19 L62.3699422,28.7286136 L72,29.480826 L65.3179191,36 L65.3179191,36 Z M94.1748476,44 C93.3445119,44 88.8509304,43.5017182 77.9100365,34.6821306 C75.7609323,32.9381443 73.7095147,31.0945017 72,29.5 C73.7095147,27.9054983 75.712089,26.161512 77.7635066,24.467354 C88.7044006,15.4982818 93.2956686,15 94.0283177,15 C101.745555,15 107.997495,21.5274914 107.997495,29.5 C108.144025,37.4725086 101.843242,44 94.1748476,44 L94.1748476,44 Z" id="Shape"></path>
                    </g>
                </g>
            </g>
        </g>
    </g>
</svg>