<?xml version="1.0" encoding="UTF-8" standalone="no"?>
<svg width="268px" height="28px" viewBox="0 0 268 28" version="1.1" xmlns="http://www.w3.org/2000/svg" xmlns:xlink="http://www.w3.org/1999/xlink" xmlns:sketch="http://www.bohemiancoding.com/sketch/ns">
    <!-- Generator: Sketch 3.3 (11970) - http://www.bohemiancoding.com/sketch -->
    <title>wowhack</title>
    <desc>Created with Sketch.</desc>
    <defs></defs>
    <g id="Welcome" stroke="none" stroke-width="1" fill="none" fill-rule="evenodd" sketch:type="MSPage">
        <g id="Home" sketch:type="MSArtboardGroup" transform="translate(-206.000000, -2428.000000)" fill="#E01270">
            <path d="M215.19185,2454.70866 L217.404317,2448.25076 L213.780125,2448.25076 L211.605305,2454.70866 L208.018759,2454.70866 L210.193579,2448.25076 L206.531233,2448.25076 L207.523256,2445.15532 L211.261912,2445.15532 L213.322268,2438.81156 L209.583612,2438.81156 L210.536972,2435.75433 L214.390601,2435.75433 L216.527266,2429.22001 L220.113303,2429.22001 L217.976638,2435.75433 L221.563183,2435.75433 L223.699849,2429.22001 L227.324549,2429.22001 L225.111574,2435.75433 L228.812584,2435.75433 L227.89687,2438.81156 L224.081396,2438.81156 L221.982885,2445.15532 L225.836514,2445.15532 L224.882646,2448.25076 L220.953216,2448.25076 L218.816042,2454.70866 L215.19185,2454.70866 L215.19185,2454.70866 Z M220.49485,2438.81156 L216.908814,2438.81156 L214.848458,2445.15532 L218.396848,2445.15532 L220.49485,2438.81156 Z M248.042572,2454.70866 L244.150789,2442.1363 L240.259006,2454.70866 L235.07047,2454.70866 L229.461723,2436.25113 L234.498149,2436.25113 L237.932075,2448.67113 L241.975969,2436.25113 L246.287454,2436.25113 L250.331857,2448.67113 L253.765275,2436.25113 L258.8017,2436.25113 L253.192954,2454.70866 L248.042572,2454.70866 Z M260.023669,2445.46104 C260.023669,2440.22553 263.686524,2435.79305 269.752619,2435.79305 C275.856869,2435.79305 279.519724,2440.22553 279.519724,2445.46104 C279.519724,2450.73426 275.856869,2455.16724 269.752619,2455.16724 C263.686524,2455.16724 260.023669,2450.73426 260.023669,2445.46104 Z M274.483807,2445.46104 C274.483807,2442.59489 272.766844,2440.11088 269.752619,2440.11088 C266.738904,2440.11088 265.059586,2442.59489 265.059586,2445.46104 C265.059586,2448.3649 266.738904,2450.8489 269.752619,2450.8489 C272.766844,2450.8489 274.483807,2448.3649 274.483807,2445.46104 Z M299.283879,2454.70866 L295.392096,2442.1363 L291.500312,2454.70866 L286.311776,2454.70866 L280.70303,2436.25113 L285.739455,2436.25113 L289.173382,2448.67113 L293.217275,2436.25113 L297.528761,2436.25113 L301.573163,2448.67113 L305.006581,2436.25113 L310.043007,2436.25113 L304.43426,2454.70866 L299.283879,2454.70866 Z M324.923864,2454.70866 L324.923864,2443.47384 C324.923864,2440.91341 323.588448,2440.11088 321.489938,2440.11088 C319.620355,2440.11088 318.132321,2441.18092 317.293425,2442.28916 L317.293425,2454.70866 L312.447773,2454.70866 L312.447773,2429.22001 L317.293425,2429.22001 L317.293425,2438.65921 C318.475713,2437.24524 320.764997,2435.79305 323.779222,2435.79305 C327.823624,2435.79305 329.769007,2438.00955 329.769007,2441.60128 L329.769007,2454.70866 L324.923864,2454.70866 Z M344.878284,2454.70866 L344.878284,2452.79789 C343.619178,2454.28829 341.444358,2455.16724 339.041118,2455.16724 C336.103203,2455.16724 332.631122,2453.18004 332.631122,2449.05329 C332.631122,2444.73495 336.103203,2443.09169 339.041118,2443.09169 C341.482512,2443.09169 343.657333,2443.89421 344.878284,2445.34639 L344.878284,2442.86239 C344.878284,2440.98984 343.275785,2439.76695 340.834391,2439.76695 C338.850344,2439.76695 337.018917,2440.49304 335.454572,2441.94522 L333.623145,2438.69691 C335.873766,2436.70971 338.774035,2435.79305 341.673286,2435.79305 C345.869799,2435.79305 349.723936,2437.47402 349.723936,2442.78596 L349.723936,2454.70866 L344.878284,2454.70866 Z M344.878284,2450.27567 L344.878284,2447.98275 C344.077035,2446.91323 342.550845,2446.37821 340.986501,2446.37821 C339.078764,2446.37821 337.514928,2447.37181 337.514928,2449.16793 C337.514928,2450.88763 339.078764,2451.88072 340.986501,2451.88072 C342.550845,2451.88072 344.077035,2451.34621 344.878284,2450.27567 Z M352.586051,2445.46104 C352.586051,2439.80516 356.668608,2435.79305 362.353156,2435.79305 C366.130474,2435.79305 368.419758,2437.43632 369.640201,2439.11728 L366.473358,2442.09808 C365.596308,2440.79876 364.260892,2440.11088 362.582083,2440.11088 C359.644677,2440.11088 357.584322,2442.25095 357.584322,2445.46104 C357.584322,2448.67113 359.644677,2450.8489 362.582083,2450.8489 C364.260892,2450.8489 365.596308,2450.08459 366.473358,2448.86221 L369.640201,2451.80429 C368.419758,2453.52398 366.130474,2455.16724 362.353156,2455.16724 C356.668608,2455.16724 352.586051,2451.15513 352.586051,2445.46104 Z M384.749479,2454.70866 L379.866181,2447.6011 L377.653206,2449.96995 L377.653206,2454.70866 L372.807553,2454.70866 L372.807553,2429.22001 L377.653206,2429.22001 L377.653206,2444.46744 L384.635014,2436.25113 L390.587154,2436.25113 L383.300107,2444.6203 L390.816081,2454.70866 L384.749479,2454.70866 Z M392.609864,2454.70866 L392.609864,2450.46675 C403.025598,2442.74775 406.077978,2440.11088 406.077978,2436.97773 C406.077978,2434.76124 404.056285,2433.65299 401.957775,2433.65299 C399.057506,2433.65299 396.845039,2434.79945 395.128076,2436.59558 L392.037542,2433.00333 C394.5176,2430.13717 398.29441,2428.83785 401.842802,2428.83785 C407.260266,2428.83785 411.571752,2431.89508 411.571752,2436.97773 C411.571752,2441.33378 407.985715,2445.1171 401.385453,2449.93224 L411.762526,2449.93224 L411.762526,2454.70866 L392.609864,2454.70866 Z M414.243092,2441.98344 C414.243092,2435.4109 417.486245,2428.83785 424.773292,2428.83785 C432.022184,2428.83785 435.303491,2435.4109 435.303491,2441.98344 C435.303491,2448.55598 432.022184,2455.16724 424.773292,2455.16724 C417.486245,2455.16724 414.243092,2448.55598 414.243092,2441.98344 Z M429.771054,2441.98344 C429.771054,2437.28294 428.397992,2433.65299 424.773292,2433.65299 C421.110945,2433.65299 419.737375,2437.28294 419.737375,2441.98344 C419.737375,2446.68393 421.110945,2450.3521 424.773292,2450.3521 C428.397992,2450.3521 429.771054,2446.68393 429.771054,2441.98344 Z M443.584087,2454.70866 L443.584087,2436.21342 L439.348402,2440.53125 L436.258377,2437.28294 L444.270364,2429.22001 L449.001552,2429.22001 L449.001552,2454.70866 L443.584087,2454.70866 Z M464.644485,2454.70866 L464.644485,2449.43544 L452.473633,2449.43544 L452.473633,2445.15532 L462.58413,2429.22001 L470.06195,2429.22001 L470.06195,2444.65852 L473.343767,2444.65852 L473.343767,2449.43544 L470.06195,2449.43544 L470.06195,2454.70866 L464.644485,2454.70866 Z M464.644485,2434.03515 L457.777141,2444.65852 L464.644485,2444.65852 L464.644485,2434.03515 L464.644485,2434.03515 Z" id="wowhack" sketch:type="MSShapeGroup"></path>
        </g>
    </g>
</svg>